<?xml version="1.0" encoding="UTF-8"?>
<svg version="1.1" xmlns="http://www.w3.org/2000/svg" width="1136" height="1079">
<path d="M0 0 C5.04403632 0.00461901 10.08783081 -0.00225645 15.13183594 -0.02050781 C44.8532732 -0.12703225 74.34957602 0.24756896 103.9503746 3.09326553 C106.51097867 3.33741515 109.07253688 3.56990839 111.63418579 3.80282593 C113.43293357 3.97151378 115.23163069 4.14074277 117.03027344 4.31054688 C117.86239696 4.38554067 118.69452047 4.46053446 119.55185986 4.53780079 C130.04137533 5.55622811 138.76241719 8.67785263 146.28295898 16.31567383 C155.82115834 28.35843319 156.1044346 43.94749828 157.34545898 58.62817383 C157.42944946 59.60005646 157.51343994 60.57193909 157.59997559 61.57327271 C158.19469441 68.48487553 158.74855069 75.39917078 159.28295898 82.31567383 C159.37864166 83.53027283 159.37864166 83.53027283 159.47625732 84.76940918 C163.52780409 136.60216992 162.60024578 189.54694711 158.28295898 241.31567383 C158.17757813 242.58698151 158.17757813 242.58698151 158.07006836 243.88397217 C157.07355899 255.7282893 155.77455981 267.52409383 154.28295898 279.31567383 C154.1697229 280.21789673 154.05648682 281.12011963 153.93981934 282.04968262 C143.49056845 364.85848585 123.39428138 446.69224576 90.72485352 523.64697266 C90.44141083 524.3165802 90.15796814 524.98618774 89.86593628 525.67608643 C89.10653144 527.4643724 88.34005424 529.24965054 87.57299805 531.03466797 C86.23459987 534.43866743 85.23065312 537.78643627 84.28295898 541.31567383 C84.82895752 541.58081787 85.37495605 541.84596191 85.9375 542.11914062 C99.72899771 548.84505757 113.16481876 556.04017142 126.46020508 563.69702148 C129.23270831 565.28685857 132.01542897 566.85699075 134.80249023 568.42114258 C145.11296182 574.2217745 155.18280255 580.26665547 165.03295898 586.8190918 C167.4867394 588.45121788 169.94727158 590.07288821 172.40795898 591.69458008 C216.77261918 621.01048835 216.77261918 621.01048835 219.28295898 632.31567383 C221.08633788 644.07489655 217.22321263 653.00580601 212.28295898 663.31567383 C211.72447266 664.49693848 211.16598633 665.67820312 210.59057617 666.89526367 C198.40092505 692.65438158 185.570929 717.99197166 170.97192383 742.48168945 C169.33459552 745.22903074 167.70823234 747.9826034 166.08374023 750.73754883 C160.11885469 760.81416076 153.9025516 770.65770621 147.28295898 780.31567383 C146.40137434 781.6098941 145.51986561 782.90416609 144.63842773 784.19848633 C142.34197685 787.56215034 140.02975041 790.91456674 137.70825195 794.26098633 C136.75519383 795.634905 135.80370457 797.00991323 134.85375977 798.38598633 C127.55445102 808.9456365 119.88244135 819.15195293 111.92749023 829.22583008 C110.41020066 831.15397716 108.90613573 833.09141029 107.40795898 835.03442383 C98.43742781 846.63755828 88.80812109 857.65778737 78.89233398 868.46020508 C77.22184131 870.23105805 77.22184131 870.23105805 76.28295898 872.31567383 C75.62295898 872.31567383 74.96295898 872.31567383 74.28295898 872.31567383 C74.04963867 872.87770508 73.81631836 873.43973633 73.57592773 874.01879883 C71.96358822 876.88301525 69.96360278 878.78819404 67.59545898 881.06567383 C64.61620307 883.98136098 61.71909052 886.87803948 59.03295898 890.06567383 C55.52373609 894.15835788 51.76157356 897.98624582 47.97045898 901.81567383 C47.346875 902.45214844 46.72329102 903.08862305 46.08081055 903.74438477 C45.49138672 904.33509766 44.90196289 904.92581055 44.29467773 905.53442383 C43.76318115 906.0700293 43.23168457 906.60563477 42.68408203 907.1574707 C41.28295898 908.31567383 41.28295898 908.31567383 39.28295898 908.31567383 C39.28295898 908.97567383 39.28295898 909.63567383 39.28295898 910.31567383 C37.70874023 911.86645508 37.70874023 911.86645508 35.59545898 913.62817383 C33.08493605 915.75212067 30.67472477 917.87068727 28.40795898 920.25317383 C26.28295898 922.31567383 26.28295898 922.31567383 24.28295898 922.31567383 C23.95295898 923.30567383 23.62295898 924.29567383 23.28295898 925.31567383 C17.81784271 930.31567383 17.81784271 930.31567383 15.28295898 930.31567383 C15.28295898 930.97567383 15.28295898 931.63567383 15.28295898 932.31567383 C13.77508738 933.69058682 12.19756138 934.98931845 10.59545898 936.25317383 C9.58870117 937.05754883 8.58194336 937.86192383 7.54467773 938.69067383 C6.74102783 939.33262695 6.74102783 939.33262695 5.92114258 939.98754883 C3.75476614 941.74389575 1.63803631 943.55456246 -0.47875977 945.37011719 C-34.40550427 974.45531809 -73.56219654 1001.08847322 -113.84887695 1020.40942383 C-115.71517928 1021.3147707 -117.56512553 1022.24707663 -119.41235352 1023.19067383 C-168.67576933 1048.32949575 -221.37961351 1065.76845292 -275.96704102 1074.69067383 C-276.69989319 1074.81209747 -277.43274536 1074.93352112 -278.18780518 1075.05862427 C-300.55931325 1078.72397165 -322.74449539 1079.66883093 -345.37353516 1079.63134766 C-348.38540613 1079.62672374 -351.39687252 1079.63362828 -354.40869141 1079.65185547 C-373.72764341 1079.76756928 -392.54342384 1079.00154356 -411.71704102 1076.31567383 C-413.1800004 1076.12018547 -414.64297087 1075.92478006 -416.10595703 1075.72949219 C-455.02266452 1070.24583291 -493.68713835 1059.03065373 -529.71704102 1043.31567383 C-530.87461914 1042.81551758 -532.03219727 1042.31536133 -533.22485352 1041.80004883 C-552.22694917 1033.22962755 -571.09212449 1023.44282961 -588.71704102 1012.31567383 C-589.99849259 1011.53262002 -591.28109498 1010.75144712 -592.56469727 1009.97192383 C-608.67107194 1000.13721432 -623.76832641 988.88890902 -638.90209961 977.63745117 C-640.47827603 976.48956052 -642.09465281 975.39726597 -643.71704102 974.31567383 C-643.71704102 973.65567383 -643.71704102 972.99567383 -643.71704102 972.31567383 C-644.27262695 972.06817383 -644.82821289 971.82067383 -645.40063477 971.56567383 C-648.14070596 970.08705193 -650.37328056 968.29004138 -652.77954102 966.31567383 C-655.38391067 964.18518196 -657.91523508 962.18354445 -660.71704102 960.31567383 C-660.71704102 959.65567383 -660.71704102 958.99567383 -660.71704102 958.31567383 C-661.25329102 958.09782227 -661.78954102 957.8799707 -662.34204102 957.65551758 C-665.5539732 955.84352294 -668.06125875 953.40126601 -670.71704102 950.87817383 C-671.88467576 949.78276561 -673.05265171 948.68772099 -674.22094727 947.59301758 C-674.80763184 947.0411377 -675.39431641 946.48925781 -675.9987793 945.9206543 C-677.56772904 944.45514199 -679.15031739 943.00766599 -680.74438477 941.56958008 C-685.09332273 937.64094216 -689.37141161 933.69865096 -693.47485352 929.51489258 C-694.10786377 928.8702002 -694.74087402 928.22550781 -695.39306641 927.5612793 C-696.63120688 926.29253383 -697.86243481 925.01699799 -699.0859375 923.73413086 C-700.5746783 922.20577881 -702.14068838 920.75349214 -703.71704102 919.31567383 C-704.70704102 919.31567383 -705.69704102 919.31567383 -706.71704102 919.31567383 C-707.04704102 920.30567383 -707.37704102 921.29567383 -707.71704102 922.31567383 C-708.37704102 922.31567383 -709.03704102 922.31567383 -709.71704102 922.31567383 C-710.04704102 923.30567383 -710.37704102 924.29567383 -710.71704102 925.31567383 C-711.37704102 925.31567383 -712.03704102 925.31567383 -712.71704102 925.31567383 C-712.71704102 925.97567383 -712.71704102 926.63567383 -712.71704102 927.31567383 C-714.09204102 928.94067383 -714.09204102 928.94067383 -715.71704102 930.31567383 C-716.37704102 930.31567383 -717.03704102 930.31567383 -717.71704102 930.31567383 C-718.04704102 931.30567383 -718.37704102 932.29567383 -718.71704102 933.31567383 C-719.37704102 933.31567383 -720.03704102 933.31567383 -720.71704102 933.31567383 C-721.04704102 934.30567383 -721.37704102 935.29567383 -721.71704102 936.31567383 C-722.37704102 936.31567383 -723.03704102 936.31567383 -723.71704102 936.31567383 C-724.11922852 937.27473633 -724.11922852 937.27473633 -724.52954102 938.25317383 C-725.71704102 940.31567383 -725.71704102 940.31567383 -728.71704102 941.31567383 C-729.04704102 942.30567383 -729.37704102 943.29567383 -729.71704102 944.31567383 C-730.37704102 944.31567383 -731.03704102 944.31567383 -731.71704102 944.31567383 C-732.04704102 945.30567383 -732.37704102 946.29567383 -732.71704102 947.31567383 C-733.37704102 947.31567383 -734.03704102 947.31567383 -734.71704102 947.31567383 C-735.11922852 948.27473633 -735.11922852 948.27473633 -735.52954102 949.25317383 C-736.71704102 951.31567383 -736.71704102 951.31567383 -739.71704102 952.31567383 C-740.04704102 953.30567383 -740.37704102 954.29567383 -740.71704102 955.31567383 C-741.37704102 955.31567383 -742.03704102 955.31567383 -742.71704102 955.31567383 C-743.04704102 956.30567383 -743.37704102 957.29567383 -743.71704102 958.31567383 C-744.37704102 958.31567383 -745.03704102 958.31567383 -745.71704102 958.31567383 C-746.08829102 959.18192383 -746.08829102 959.18192383 -746.46704102 960.06567383 C-747.9000409 962.64507362 -749.50128778 964.37688975 -751.71704102 966.31567383 C-752.37704102 966.31567383 -753.03704102 966.31567383 -753.71704102 966.31567383 C-754.04704102 967.30567383 -754.37704102 968.29567383 -754.71704102 969.31567383 C-755.37704102 969.31567383 -756.03704102 969.31567383 -756.71704102 969.31567383 C-757.08829102 970.18192383 -757.08829102 970.18192383 -757.46704102 971.06567383 C-758.9000409 973.64507362 -760.50128778 975.37688975 -762.71704102 977.31567383 C-763.37704102 977.31567383 -764.03704102 977.31567383 -764.71704102 977.31567383 C-765.04704102 978.30567383 -765.37704102 979.29567383 -765.71704102 980.31567383 C-766.37704102 980.31567383 -767.03704102 980.31567383 -767.71704102 980.31567383 C-768.08829102 981.18192383 -768.08829102 981.18192383 -768.46704102 982.06567383 C-769.9000409 984.64507362 -771.50128778 986.37688975 -773.71704102 988.31567383 C-774.37704102 988.31567383 -775.03704102 988.31567383 -775.71704102 988.31567383 C-776.10559989 989.19137559 -776.10559989 989.19137559 -776.50200844 990.0847683 C-777.81051071 992.48729232 -779.226929 994.07718021 -781.15756226 996.01016235 C-781.86973404 996.72797379 -782.58190582 997.44578522 -783.31565857 998.18534851 C-784.09699661 998.96263809 -784.87833466 999.73992767 -785.68334961 1000.54077148 C-786.50626999 1001.3671965 -787.32919037 1002.19362152 -788.17704773 1003.04508972 C-790.90151025 1005.77836235 -793.63323294 1008.50424541 -796.36547852 1011.22973633 C-798.25905233 1013.124657 -800.15232882 1015.01987105 -802.0453186 1016.91537476 C-806.01465788 1020.8883512 -809.98819218 1024.85709541 -813.96411133 1028.82348633 C-818.55874423 1033.40723517 -823.14612779 1037.99814448 -827.72981203 1042.59283984 C-831.66760118 1046.53970896 -835.6092796 1050.48266209 -839.55422652 1054.42237699 C-841.90942902 1056.77446371 -844.26286677 1059.12826433 -846.61359787 1061.48482132 C-849.23490893 1064.1112015 -851.86252883 1066.73110132 -854.49194336 1069.34936523 C-855.26923294 1070.13070328 -856.04652252 1070.91204132 -856.84736633 1071.71705627 C-857.92408348 1072.78531395 -857.92408348 1072.78531395 -859.02255249 1073.87515259 C-859.64308691 1074.49493296 -860.26362133 1075.11471333 -860.90295982 1075.75327492 C-867.33490524 1081.29286408 -876.34099974 1080.07509139 -884.33276367 1079.60131836 C-889.67297557 1078.96154282 -893.56090707 1076.56986899 -897.71704102 1073.31567383 C-898.79985352 1072.5209668 -898.79985352 1072.5209668 -899.90454102 1071.71020508 C-909.26654021 1064.2454292 -914.62406984 1054.5630027 -916.59204102 1042.87817383 C-917.01284488 1036.78703791 -916.35503085 1031.46294226 -912.31079102 1026.63793945 C-909.50719286 1023.63266737 -906.562537 1020.80050346 -903.55297852 1018.00317383 C-900.73774941 1015.64175684 -900.73774941 1015.64175684 -899.71704102 1013.31567383 C-899.05704102 1013.31567383 -898.39704102 1013.31567383 -897.71704102 1013.31567383 C-897.38704102 1012.32567383 -897.05704102 1011.33567383 -896.71704102 1010.31567383 C-896.05704102 1010.31567383 -895.39704102 1010.31567383 -894.71704102 1010.31567383 C-894.45922852 1009.73301758 -894.20141602 1009.15036133 -893.93579102 1008.55004883 C-892.61870085 1006.13538352 -891.16615717 1004.49827205 -889.21704102 1002.56567383 C-888.60860352 1001.95208008 -888.00016602 1001.33848633 -887.37329102 1000.70629883 C-885.71704102 999.31567383 -885.71704102 999.31567383 -883.71704102 999.31567383 C-883.49480299 998.76825751 -883.27256496 998.2208412 -883.04359245 997.65683651 C-881.30703613 994.5920772 -878.9779252 992.31074869 -876.49221802 989.85707092 C-875.95430252 989.31815214 -875.41638702 988.77923336 -874.86217105 988.22398371 C-873.05825307 986.41911303 -871.24728406 984.6214881 -869.4362793 982.82373047 C-868.14156174 981.53121413 -866.8472916 980.23824947 -865.55343628 978.94487 C-862.76585516 976.16022315 -859.97514515 973.37876382 -857.18198013 970.59971809 C-852.76502836 966.20502314 -848.35516687 961.8032597 -843.94625854 957.40049744 C-836.97084363 950.43646771 -829.99077357 943.47712536 -823.00866783 936.51980442 C-810.50847766 924.06391364 -798.01381955 911.60247973 -785.52440441 899.13578504 C-781.14096204 894.76074777 -776.75472656 890.38853568 -772.36622262 886.01857579 C-769.63524877 883.2982541 -766.90631215 880.57589549 -764.17787552 877.85302925 C-762.91297688 876.59159767 -761.64720746 875.33103856 -760.38050079 874.07142258 C-758.64995293 872.35034813 -756.92253647 870.62618883 -755.1958313 868.90126038 C-754.69524173 868.40494789 -754.19465216 867.9086354 -753.67889321 867.39728314 C-750.80444734 864.51816922 -748.21214034 861.52710969 -745.71704102 858.31567383 C-744.09204102 856.50317383 -744.09204102 856.50317383 -742.71704102 855.31567383 C-742.05704102 855.31567383 -741.39704102 855.31567383 -740.71704102 855.31567383 C-740.71704102 854.65567383 -740.71704102 853.99567383 -740.71704102 853.31567383 C-740.05704102 852.98567383 -739.39704102 852.65567383 -738.71704102 852.31567383 C-740.23545711 846.71420443 -741.77032837 841.11778887 -743.33486938 835.52900696 C-754.90457238 794.12652326 -763.91874054 752.12723064 -768.39970398 709.32785034 C-768.59394788 707.48407904 -768.79279283 705.64077614 -768.99958801 703.79837036 C-771.13376316 684.53411933 -771.05863176 665.24683312 -771.03271484 645.89208984 C-771.02809269 642.14522263 -771.03498496 638.39868075 -771.05322266 634.65185547 C-771.1639785 611.66767225 -770.59934931 589.14441898 -767.71704102 566.31567383 C-767.60999847 565.44204193 -767.50295593 564.56841003 -767.39266968 563.66830444 C-766.81271597 558.99478649 -766.14143301 554.34247997 -765.40454102 549.69067383 C-765.30066071 549.02353363 -765.1967804 548.35639343 -765.0897522 547.66903687 C-757.74316355 500.63123471 -744.56344982 455.01629862 -725.71704102 411.31567383 C-725.34595215 410.44797363 -724.97486328 409.58027344 -724.5925293 408.6862793 C-720.02143441 398.03303603 -715.07927514 387.59292741 -709.71704102 377.31567383 C-709.03496582 376.00518066 -709.03496582 376.00518066 -708.33911133 374.66821289 C-700.17941822 359.0818614 -691.27592505 344.08212171 -681.71704102 329.31567383 C-680.8251709 327.93653809 -680.8251709 327.93653809 -679.9152832 326.52954102 C-662.91990807 300.37486929 -643.76170841 276.13444247 -623.02172852 252.86645508 C-621.51753745 251.13687893 -621.51753745 251.13687893 -619.71704102 248.31567383 C-619.05704102 248.31567383 -618.39704102 248.31567383 -617.71704102 248.31567383 C-617.4553714 247.72901443 -617.19370178 247.14235504 -616.92410278 246.53791809 C-615.64813393 244.1888134 -614.29261192 242.64378801 -612.40405273 240.75976562 C-611.72929901 240.08193527 -611.05454529 239.40410492 -610.35934448 238.70573425 C-609.26409958 237.62126762 -609.26409958 237.62126762 -608.14672852 236.51489258 C-607.39167023 235.76029251 -606.63661194 235.00569244 -605.8586731 234.22822571 C-604.25881351 232.63138643 -602.65652497 231.03697756 -601.05200195 229.44482422 C-598.61692752 227.02787509 -596.1898195 224.60315218 -593.76391602 222.17700195 C-592.20448862 220.62249543 -590.64460691 219.06844451 -589.08422852 217.51489258 C-588.36621063 216.79798752 -587.64819275 216.08108246 -586.90841675 215.342453 C-574.28985098 202.83994382 -574.28985098 202.83994382 -569.71704102 201.31567383 C-569.38704102 200.32567383 -569.05704102 199.33567383 -568.71704102 198.31567383 C-566.67016602 196.44067383 -566.67016602 196.44067383 -563.96704102 194.31567383 C-562.9602832 193.51387695 -561.95352539 192.71208008 -560.91625977 191.88598633 C-560.38564941 191.46349609 -559.85503906 191.04100586 -559.30834961 190.60571289 C-556.74624548 188.52867113 -554.27170649 186.35076551 -551.77954102 184.19067383 C-543.93017494 177.47749453 -535.6208841 171.37355452 -527.31762695 165.23852539 C-524.75084685 163.34066958 -522.19044414 161.43448343 -519.63110352 159.52661133 C-511.14146083 153.21328579 -502.6250819 147.0302661 -493.71704102 141.31567383 C-492.79793945 140.7252832 -491.87883789 140.13489258 -490.93188477 139.52661133 C-489.15132089 138.38965493 -487.36832609 137.25649135 -485.58227539 136.12817383 C-482.91495164 134.44086882 -480.25507627 132.74241333 -477.59594727 131.04223633 C-471.84225708 127.3805331 -466.0410111 123.80178718 -460.21704102 120.25317383 C-459.2618457 119.66729492 -458.30665039 119.08141602 -457.32250977 118.4777832 C-431.6199104 102.80928386 -404.1539147 89.63288996 -376.71704102 77.31567383 C-375.74718262 76.87707031 -374.77732422 76.4384668 -373.77807617 75.98657227 C-347.35786366 64.07668231 -320.28072537 54.20215125 -292.71704102 45.31567383 C-290.78845712 44.68476981 -288.86005731 44.05330266 -286.93188477 43.42114258 C-220.75794577 21.86973858 -151.67265718 8.63841752 -82.36660767 2.63342285 C-80.13398459 2.43903983 -77.90174867 2.2400545 -75.67025757 2.03308105 C-50.49674662 -0.25888624 -25.25483063 -0.02510726 0 0 Z M-74.71704102 72.31567383 C-75.52546448 72.38592773 -76.33388794 72.45618164 -77.16680908 72.52856445 C-114.31185663 75.81609367 -151.51116835 81.31526785 -187.90112305 89.46264648 C-191.59542337 90.28848688 -195.2944418 91.08978304 -198.99438477 91.88989258 C-255.54739935 104.37174575 -310.51086985 123.53028943 -362.94506836 148.02368164 C-365.51685365 149.22236825 -368.09441592 150.40748584 -370.67407227 151.58911133 C-382.09537912 156.85957348 -393.11946961 162.75467306 -404.1081543 168.87084961 C-406.50972867 170.20086245 -408.92086402 171.51056369 -411.33813477 172.81176758 C-423.50589285 179.3966878 -435.1326897 186.75900177 -446.71704102 194.31567383 C-447.81072998 195.02820313 -447.81072998 195.02820313 -448.92651367 195.75512695 C-457.34557362 201.2584162 -465.60537484 206.96805662 -473.74194336 212.88061523 C-475.149523 213.90332885 -476.55889956 214.92357125 -477.96948242 215.94213867 C-487.18344689 222.60199746 -496.21879136 229.35000816 -504.80688477 236.80395508 C-507.58634872 239.20287498 -510.41794405 241.51581282 -513.27954102 243.81567383 C-518.26872519 247.87393151 -522.99374717 252.16082949 -527.69750977 256.54223633 C-529.84222146 258.53620952 -532.04080194 260.44949471 -534.26782227 262.35083008 C-539.74818338 267.12767969 -544.86374394 272.27633389 -550.00170898 277.41503906 C-551.73607416 279.14718259 -553.47833692 280.87112693 -555.22094727 282.5949707 C-556.32429889 283.69539404 -557.4271814 284.79628799 -558.52954102 285.89770508 C-559.05128906 286.41226761 -559.57303711 286.92683014 -560.1105957 287.45698547 C-562.88606298 289.91981185 -562.88606298 289.91981185 -563.71704102 293.31567383 C-564.37704102 293.31567383 -565.03704102 293.31567383 -565.71704102 293.31567383 C-567.12005538 294.62454193 -567.12005538 294.62454193 -568.59204102 296.44067383 C-569.20950195 297.16770508 -569.82696289 297.89473633 -570.46313477 298.64379883 C-571.20692383 299.52551758 -571.95071289 300.40723633 -572.71704102 301.31567383 C-573.66494378 302.41576746 -574.61425364 303.51464967 -575.56469727 304.61254883 C-601.41117489 334.50128812 -623.51798879 366.81001791 -642.71704102 401.31567383 C-643.10956055 402.01273437 -643.50208008 402.70979492 -643.90649414 403.42797852 C-651.84169616 417.56999199 -658.25843727 432.45882177 -664.71704102 447.31567383 C-665.22195068 448.47196289 -665.22195068 448.47196289 -665.73706055 449.65161133 C-699.25948798 527.17840516 -707.33371717 616.53125302 -681.71704102 794.31567383 C-681.05704102 794.31567383 -680.39704102 794.31567383 -679.71704102 794.31567383 C-679.71704102 793.65567383 -679.71704102 792.99567383 -679.71704102 792.31567383 C-679.05704102 792.31567383 -678.39704102 792.31567383 -677.71704102 792.31567383 C-676.37808469 790.65352115 -675.04573959 788.98603775 -673.71704102 787.31567383 C-672.80954102 786.59379883 -671.90204102 785.87192383 -670.96704102 785.12817383 C-669.85329102 784.23098633 -669.85329102 784.23098633 -668.71704102 783.31567383 C-668.71704102 782.65567383 -668.71704102 781.99567383 -668.71704102 781.31567383 C-668.05704102 781.31567383 -667.39704102 781.31567383 -666.71704102 781.31567383 C-665.37808469 779.65352115 -664.04573959 777.98603775 -662.71704102 776.31567383 C-661.95391602 775.71754883 -661.19079102 775.11942383 -660.40454102 774.50317383 C-658.16325703 772.67887291 -656.56121362 771.04097185 -654.72119141 768.85498047 C-650.52104076 764.00435343 -646.01100756 759.49542455 -641.45611382 754.97958183 C-639.92661336 753.46305598 -638.40044386 751.94324364 -636.87501526 750.42262268 C-633.63768949 747.19662055 -630.39642273 743.97459671 -627.15454102 740.75317383 C-623.38924786 737.01161445 -619.62566124 733.26837005 -615.86628914 729.52086067 C-614.37397996 728.03495887 -612.8786572 726.5521383 -611.38316345 725.06944275 C-605.7813616 719.49973079 -605.7813616 719.49973079 -600.55322266 713.58544922 C-597.92978791 710.43136986 -594.98135812 707.85091542 -591.86401367 705.1937561 C-587.87077991 701.70064149 -584.1572386 697.91869585 -580.40454102 694.17114258 C-579.55021484 693.32014481 -578.69588867 692.46914703 -577.81567383 691.59236145 C-576.02611905 689.80783754 -574.23788805 688.0219852 -572.45092773 686.23486328 C-569.70259278 683.48873721 -566.94633077 680.75073213 -564.18969727 678.01293945 C-562.44832368 676.27449602 -560.70742103 674.53558069 -558.96704102 672.79614258 C-558.13906006 671.97534714 -557.3110791 671.1545517 -556.45800781 670.30888367 C-555.70302002 669.55081924 -554.94803223 668.79275482 -554.17016602 668.01171875 C-553.16711426 667.01080452 -553.16711426 667.01080452 -552.14379883 665.9896698 C-550.50081868 664.42857017 -550.50081868 664.42857017 -550.71704102 662.31567383 C-549.72704102 661.98567383 -548.73704102 661.65567383 -547.71704102 661.31567383 C-547.71704102 660.65567383 -547.71704102 659.99567383 -547.71704102 659.31567383 C-547.13954102 659.06817383 -546.56204102 658.82067383 -545.96704102 658.56567383 C-543.38764122 657.13267394 -541.6558251 655.53142706 -539.71704102 653.31567383 C-539.71704102 652.65567383 -539.71704102 651.99567383 -539.71704102 651.31567383 C-538.72704102 650.98567383 -537.73704102 650.65567383 -536.71704102 650.31567383 C-536.71704102 649.65567383 -536.71704102 648.99567383 -536.71704102 648.31567383 C-535.72704102 647.98567383 -534.73704102 647.65567383 -533.71704102 647.31567383 C-533.71704102 646.65567383 -533.71704102 645.99567383 -533.71704102 645.31567383 C-533.07766602 645.04754883 -532.43829102 644.77942383 -531.77954102 644.50317383 C-529.38572415 643.42899631 -529.38572415 643.42899631 -528.71704102 640.31567383 C-527.72704102 639.98567383 -526.73704102 639.65567383 -525.71704102 639.31567383 C-525.71704102 638.65567383 -525.71704102 637.99567383 -525.71704102 637.31567383 C-524.72704102 636.98567383 -523.73704102 636.65567383 -522.71704102 636.31567383 C-522.71704102 635.65567383 -522.71704102 634.99567383 -522.71704102 634.31567383 C-522.07766602 634.04754883 -521.43829102 633.77942383 -520.77954102 633.50317383 C-518.38572415 632.42899631 -518.38572415 632.42899631 -517.71704102 629.31567383 C-516.72704102 628.98567383 -515.73704102 628.65567383 -514.71704102 628.31567383 C-514.71704102 627.65567383 -514.71704102 626.99567383 -514.71704102 626.31567383 C-513.72704102 625.98567383 -512.73704102 625.65567383 -511.71704102 625.31567383 C-511.71704102 624.65567383 -511.71704102 623.99567383 -511.71704102 623.31567383 C-511.07766602 623.04754883 -510.43829102 622.77942383 -509.77954102 622.50317383 C-507.38572415 621.42899631 -507.38572415 621.42899631 -506.71704102 618.31567383 C-505.72704102 617.98567383 -504.73704102 617.65567383 -503.71704102 617.31567383 C-503.71704102 616.65567383 -503.71704102 615.99567383 -503.71704102 615.31567383 C-502.72704102 614.98567383 -501.73704102 614.65567383 -500.71704102 614.31567383 C-500.71704102 613.65567383 -500.71704102 612.99567383 -500.71704102 612.31567383 C-499.72704102 611.98567383 -498.73704102 611.65567383 -497.71704102 611.31567383 C-497.71704102 610.65567383 -497.71704102 609.99567383 -497.71704102 609.31567383 C-497.05704102 609.31567383 -496.39704102 609.31567383 -495.71704102 609.31567383 C-495.71704102 608.65567383 -495.71704102 607.99567383 -495.71704102 607.31567383 C-494.72704102 606.98567383 -493.73704102 606.65567383 -492.71704102 606.31567383 C-492.71704102 605.65567383 -492.71704102 604.99567383 -492.71704102 604.31567383 C-491.72704102 603.98567383 -490.73704102 603.65567383 -489.71704102 603.31567383 C-489.71704102 602.65567383 -489.71704102 601.99567383 -489.71704102 601.31567383 C-488.72704102 600.98567383 -487.73704102 600.65567383 -486.71704102 600.31567383 C-486.71704102 599.65567383 -486.71704102 598.99567383 -486.71704102 598.31567383 C-486.05704102 598.31567383 -485.39704102 598.31567383 -484.71704102 598.31567383 C-484.71704102 597.65567383 -484.71704102 596.99567383 -484.71704102 596.31567383 C-483.72704102 595.98567383 -482.73704102 595.65567383 -481.71704102 595.31567383 C-481.71704102 594.65567383 -481.71704102 593.99567383 -481.71704102 593.31567383 C-480.72704102 592.98567383 -479.73704102 592.65567383 -478.71704102 592.31567383 C-478.71704102 591.65567383 -478.71704102 590.99567383 -478.71704102 590.31567383 C-477.72704102 589.98567383 -476.73704102 589.65567383 -475.71704102 589.31567383 C-474.1450443 587.7690151 -474.1450443 587.7690151 -472.60415554 585.83446312 C-468.47994335 580.97892469 -464.0375754 576.50630534 -459.52320862 572.01504517 C-458.61884613 571.11123938 -457.71448363 570.20743359 -456.78271621 569.27623975 C-454.29242324 566.78758008 -451.79904007 564.30203732 -449.30512393 561.81700921 C-446.608746 559.12910692 -443.91532415 556.43824538 -441.22157288 553.74771118 C-436.56049769 549.09291636 -431.89770306 544.43984985 -427.23382759 539.78786087 C-420.48974307 533.06078479 -413.7493989 526.32997054 -407.01014423 519.59805624 C-396.07326266 508.6731034 -385.13487449 497.74966062 -374.19482422 486.82788086 C-373.54084748 486.17499424 -372.88687074 485.52210763 -372.21307652 484.84943657 C-362.91484305 475.56684174 -353.61513033 466.28573026 -344.31483918 457.00519709 C-343.6587401 456.35049133 -343.00264102 455.69578557 -342.32666016 455.02124023 C-341.67136019 454.3673338 -341.01606023 453.71342737 -340.34090269 453.03970559 C-329.43019092 442.15199615 -318.52331426 431.26045428 -307.61959881 420.36573827 C-300.89347818 413.6454799 -294.16410754 406.92850836 -287.43056958 400.21568184 C-282.82474577 395.62352472 -278.22249576 391.02780674 -273.62309457 386.42921694 C-270.96641672 383.77324571 -268.30809099 381.11897738 -265.64542389 378.4690094 C-262.76556887 375.60281834 -259.89340637 372.72904352 -257.02198792 369.85440063 C-256.17075413 369.00967465 -255.31952034 368.16494867 -254.44249159 367.29462492 C-253.68046146 366.52922939 -252.91843132 365.76383386 -252.13330936 364.97524452 C-251.46879609 364.31203276 -250.80428282 363.648821 -250.11963278 362.96551192 C-248.50113771 361.42262196 -248.50113771 361.42262196 -248.71704102 359.31567383 C-248.05704102 359.31567383 -247.39704102 359.31567383 -246.71704102 359.31567383 C-245.15055243 357.72829984 -245.15055243 357.72829984 -243.52954102 355.69067383 C-241.23345412 352.98100606 -238.96686298 350.56270667 -236.21704102 348.31567383 C-233.70689201 346.25805838 -231.58809531 344.10522542 -229.49223232 341.6287899 C-225.77702152 337.33137263 -221.84171285 333.30905589 -217.8139801 329.30581665 C-217.04845839 328.54085164 -216.28293668 327.77588664 -215.49421734 326.98774087 C-212.94789625 324.44443757 -210.39801856 321.90473102 -207.84814453 319.36499023 C-206.01439258 317.53479708 -204.18087717 315.70436692 -202.34757996 313.87371826 C-198.41005875 309.94247142 -194.47081797 306.01295469 -190.53048897 302.08452225 C-184.83254632 296.40360279 -179.13835687 290.71893272 -173.44525277 285.03316478 C-164.20546006 275.80529502 -154.96415915 266.57893757 -145.72119141 257.35424805 C-144.89274765 256.52743948 -144.89274765 256.52743948 -144.04756766 255.6839277 C-136.19300454 247.84500718 -128.33696369 240.00756925 -120.48034804 232.17070596 C-119.92592987 231.6176811 -119.37151169 231.06465624 -118.80029297 230.49487305 C-118.24655086 229.94252446 -117.69280874 229.39017588 -117.12228657 228.82108946 C-107.90207309 219.62387929 -98.68569593 210.42283598 -89.47247833 201.2186178 C-83.79047859 195.54247901 -78.10523346 189.86962925 -72.41581457 184.20092683 C-68.06636123 179.86675192 -63.72204419 175.52746326 -59.37965584 171.18621063 C-57.59308172 169.40179383 -55.80477388 167.61911099 -54.01465988 165.83824539 C-51.58224921 163.41792239 -49.15597649 160.99161306 -46.73121643 158.56362915 C-45.65280411 157.49497854 -45.65280411 157.49497854 -44.55260569 156.40473902 C-43.909011 155.75777894 -43.26541632 155.11081886 -42.60231876 154.44425392 C-42.04108942 153.88432609 -41.47986008 153.32439826 -40.90162379 152.74750292 C-39.50455882 151.3685631 -39.50455882 151.3685631 -39.71704102 149.31567383 C-39.05704102 149.31567383 -38.39704102 149.31567383 -37.71704102 149.31567383 C-36.36317166 147.66564555 -35.03025959 145.99823513 -33.71704102 144.31567383 C-33.05704102 143.98567383 -32.39704102 143.65567383 -31.71704102 143.31567383 C-31.71704102 142.65567383 -31.71704102 141.99567383 -31.71704102 141.31567383 C-30.23204102 140.82067383 -30.23204102 140.82067383 -28.71704102 140.31567383 C-28.71704102 139.65567383 -28.71704102 138.99567383 -28.71704102 138.31567383 C-28.05704102 138.31567383 -27.39704102 138.31567383 -26.71704102 138.31567383 C-25.37808469 136.65352115 -24.04573959 134.98603775 -22.71704102 133.31567383 C-21.80954102 132.59379883 -20.90204102 131.87192383 -19.96704102 131.12817383 C-19.22454102 130.53004883 -18.48204102 129.93192383 -17.71704102 129.31567383 C-17.71704102 128.65567383 -17.71704102 127.99567383 -17.71704102 127.31567383 C-17.05704102 127.31567383 -16.39704102 127.31567383 -15.71704102 127.31567383 C-14.37808469 125.65352115 -13.04573959 123.98603775 -11.71704102 122.31567383 C-10.80954102 121.59379883 -9.90204102 120.87192383 -8.96704102 120.12817383 C-8.22454102 119.53004883 -7.48204102 118.93192383 -6.71704102 118.31567383 C-6.71704102 117.65567383 -6.71704102 116.99567383 -6.71704102 116.31567383 C-6.05704102 116.31567383 -5.39704102 116.31567383 -4.71704102 116.31567383 C-3.37808469 114.65352115 -2.04573959 112.98603775 -0.71704102 111.31567383 C0.06670898 110.69692383 0.85045898 110.07817383 1.65795898 109.44067383 C3.88275873 107.63964547 5.47380847 105.99593214 7.28295898 103.81567383 C9.71234004 100.89050072 12.31006003 98.69399299 15.28295898 96.31567383 C16.30246723 95.1660156 17.30122962 93.99775613 18.28295898 92.81567383 C20.71234004 89.89050072 23.31006003 87.69399299 26.28295898 85.31567383 C27.83097108 83.57004317 29.31331544 81.77890183 30.79858398 79.97973633 C32.28295898 78.31567383 32.28295898 78.31567383 35.03295898 76.19067383 C37.60197941 74.04982347 38.16757339 72.40833389 39.28295898 69.31567383 C1.17751792 68.95586269 -36.71717461 69.01079097 -74.71704102 72.31567383 Z M85.21446228 124.25045776 C84.33801559 125.12263947 83.46156891 125.99482117 82.55856323 126.89343262 C81.57984091 127.87250451 80.60117459 128.85163239 79.62255859 129.83081055 C78.59799472 130.8523848 77.57322492 131.87375254 76.54826355 132.89492798 C73.75669125 135.67763615 70.96840119 138.46361122 68.18093944 141.25043631 C65.857995 143.5724337 63.53368794 145.89306485 61.20944315 148.2137605 C55.7285052 153.68654478 50.25043333 159.16218692 44.77392578 164.6394043 C39.11458689 170.29934428 33.44969327 175.95368193 27.78216547 181.60542095 C22.92512197 186.44941242 18.07191769 191.29722751 13.22171599 196.1480695 C10.32104957 199.04899159 7.41883194 201.94832018 4.5127697 204.84383774 C1.780898 207.56606763 -0.946184 210.29300418 -3.66958427 213.02370834 C-4.67245683 214.02763163 -5.67705551 215.02983384 -6.68345642 216.03022003 C-8.05207393 217.3911836 -9.41400446 218.75886212 -10.77552795 220.12692261 C-11.5411609 220.89201078 -12.30679384 221.65709896 -13.09562778 222.44537163 C-14.93538846 224.15499121 -14.93538846 224.15499121 -14.71704102 226.31567383 C-15.70704102 226.64567383 -16.69704102 226.97567383 -17.71704102 227.31567383 C-17.71704102 227.97567383 -17.71704102 228.63567383 -17.71704102 229.31567383 C-18.70704102 229.64567383 -19.69704102 229.97567383 -20.71704102 230.31567383 C-20.71704102 230.97567383 -20.71704102 231.63567383 -20.71704102 232.31567383 C-21.70704102 232.64567383 -22.69704102 232.97567383 -23.71704102 233.31567383 C-23.71704102 233.97567383 -23.71704102 234.63567383 -23.71704102 235.31567383 C-24.37704102 235.31567383 -25.03704102 235.31567383 -25.71704102 235.31567383 C-27.38370768 236.64900716 -27.38370768 236.64900716 -28.71704102 238.31567383 C-28.71704102 238.97567383 -28.71704102 239.63567383 -28.71704102 240.31567383 C-29.70704102 240.64567383 -30.69704102 240.97567383 -31.71704102 241.31567383 C-31.71704102 241.97567383 -31.71704102 242.63567383 -31.71704102 243.31567383 C-32.37704102 243.31567383 -33.03704102 243.31567383 -33.71704102 243.31567383 C-35.07091037 244.96570211 -36.40382244 246.63311253 -37.71704102 248.31567383 C-38.37704102 248.64567383 -39.03704102 248.97567383 -39.71704102 249.31567383 C-39.71704102 249.97567383 -39.71704102 250.63567383 -39.71704102 251.31567383 C-40.70704102 251.64567383 -41.69704102 251.97567383 -42.71704102 252.31567383 C-42.71704102 252.97567383 -42.71704102 253.63567383 -42.71704102 254.31567383 C-43.37704102 254.31567383 -44.03704102 254.31567383 -44.71704102 254.31567383 C-46.05599734 255.9778265 -47.38834244 257.6453099 -48.71704102 259.31567383 C-49.62454102 260.03754883 -50.53204102 260.75942383 -51.46704102 261.50317383 C-52.20954102 262.10129883 -52.95204102 262.69942383 -53.71704102 263.31567383 C-53.71704102 263.97567383 -53.71704102 264.63567383 -53.71704102 265.31567383 C-54.37704102 265.31567383 -55.03704102 265.31567383 -55.71704102 265.31567383 C-57.05599734 266.9778265 -58.38834244 268.6453099 -59.71704102 270.31567383 C-60.62454102 271.03754883 -61.53204102 271.75942383 -62.46704102 272.50317383 C-63.20954102 273.10129883 -63.95204102 273.69942383 -64.71704102 274.31567383 C-64.71704102 274.97567383 -64.71704102 275.63567383 -64.71704102 276.31567383 C-65.37704102 276.31567383 -66.03704102 276.31567383 -66.71704102 276.31567383 C-68.38370768 277.64900716 -68.38370768 277.64900716 -69.71704102 279.31567383 C-69.71704102 279.97567383 -69.71704102 280.63567383 -69.71704102 281.31567383 C-49.98318481 281.67786517 -30.31681462 280.96290976 -10.60180664 280.16992188 C-8.27173463 280.0764262 -5.94165639 279.98308586 -3.61157227 279.88989258 C-1.83703171 279.81891609 -1.83703171 279.81891609 -0.02664185 279.74650574 C9.36308345 279.37719243 18.75386101 279.06443022 28.14624023 278.77270508 C29.20182381 278.73975468 29.20182381 278.73975468 30.2787323 278.70613861 C36.53830518 278.51085978 42.797918 278.31702279 49.05780029 278.13189697 C52.90768442 278.01759645 56.75742959 277.89929661 60.60717773 277.78051758 C61.74351151 277.74827591 62.87984528 277.71603424 64.0506134 277.68281555 C70.49948643 277.48069253 76.87338326 277.06047714 83.28295898 276.31567383 C85.38566523 267.02246317 86.35936976 257.65735212 87.28295898 248.19067383 C87.41269104 246.8666153 87.41269104 246.8666153 87.54504395 245.51580811 C90.48526577 214.99250301 91.45031186 184.34587204 91.47045898 153.69067383 C91.47154663 152.80333557 91.47263428 151.91599731 91.47375488 151.00177002 C91.47231156 140.72510157 91.19546203 130.55796925 90.28295898 120.31567383 C88.25624551 120.31567383 86.52491742 122.94286959 85.21446228 124.25045776 Z M26.49160767 348.06328201 C23.65638511 348.15158036 20.82110228 348.23785968 17.98582077 348.32424068 C-8.74958121 349.1396085 -35.48334643 350.00894646 -62.21704102 350.87817383 C-63.20608177 350.91030094 -64.19512253 350.94242805 -65.21413422 350.97552872 C-77.9433934 351.38915689 -90.67244456 351.80849769 -103.40118408 352.23783112 C-105.61305672 352.31217861 -107.82495584 352.38567861 -110.03686523 352.45892334 C-113.77414759 352.58299096 -117.51122972 352.71244989 -121.24829102 352.84301758 C-122.27740601 352.87682022 -123.306521 352.91062286 -124.36682129 352.94544983 C-126.19255511 353.0111694 -128.01791283 353.08986797 -129.84224224 353.18705463 C-131.67460376 353.26903493 -133.50976469 353.30782093 -135.34386921 353.28965187 C-143.45351856 353.4766599 -147.10377525 356.29125305 -152.58496094 362.01660156 C-153.39611359 362.82308136 -154.20726624 363.62956116 -155.04299927 364.46047974 C-157.70249249 367.11675799 -160.32467688 369.80682513 -162.94750977 372.49926758 C-164.79062095 374.35596258 -166.63581202 376.21059504 -168.48298645 378.06324768 C-172.34150282 381.94011479 -176.18124772 385.8347566 -180.00830078 389.74267578 C-185.41076507 395.25918768 -190.84784456 400.74058771 -196.29148328 406.21642768 C-200.51738667 410.4702165 -204.73259342 414.73459619 -208.94750977 418.99926758 C-209.84989065 419.91147001 -210.75227154 420.82367245 -211.6819973 421.76351738 C-214.21793451 424.33185656 -216.74649188 426.90721258 -219.27246094 429.48535156 C-220.03129074 430.25270126 -220.79012054 431.02005096 -221.57194519 431.81065369 C-222.25442322 432.51033264 -222.93690125 433.2100116 -223.64006042 433.93089294 C-224.23784396 434.53982108 -224.8356275 435.14874922 -225.45152569 435.77612972 C-226.92870968 437.24102311 -226.92870968 437.24102311 -226.71704102 439.31567383 C-227.70704102 439.64567383 -228.69704102 439.97567383 -229.71704102 440.31567383 C-229.71704102 440.97567383 -229.71704102 441.63567383 -229.71704102 442.31567383 C-230.70704102 442.64567383 -231.69704102 442.97567383 -232.71704102 443.31567383 C-232.71704102 443.97567383 -232.71704102 444.63567383 -232.71704102 445.31567383 C-233.67610352 445.71786133 -233.67610352 445.71786133 -234.65454102 446.12817383 C-237.04835788 447.20235135 -237.04835788 447.20235135 -237.71704102 450.31567383 C-238.70704102 450.64567383 -239.69704102 450.97567383 -240.71704102 451.31567383 C-240.71704102 451.97567383 -240.71704102 452.63567383 -240.71704102 453.31567383 C-241.70704102 453.64567383 -242.69704102 453.97567383 -243.71704102 454.31567383 C-243.71704102 454.97567383 -243.71704102 455.63567383 -243.71704102 456.31567383 C-244.67610352 456.71786133 -244.67610352 456.71786133 -245.65454102 457.12817383 C-248.04835788 458.20235135 -248.04835788 458.20235135 -248.71704102 461.31567383 C-249.70704102 461.64567383 -250.69704102 461.97567383 -251.71704102 462.31567383 C-251.71704102 462.97567383 -251.71704102 463.63567383 -251.71704102 464.31567383 C-252.70704102 464.64567383 -253.69704102 464.97567383 -254.71704102 465.31567383 C-254.71704102 465.97567383 -254.71704102 466.63567383 -254.71704102 467.31567383 C-255.70704102 467.64567383 -256.69704102 467.97567383 -257.71704102 468.31567383 C-257.71704102 468.97567383 -257.71704102 469.63567383 -257.71704102 470.31567383 C-258.37704102 470.31567383 -259.03704102 470.31567383 -259.71704102 470.31567383 C-259.71704102 470.97567383 -259.71704102 471.63567383 -259.71704102 472.31567383 C-261.20204102 472.81067383 -261.20204102 472.81067383 -262.71704102 473.31567383 C-262.71704102 473.97567383 -262.71704102 474.63567383 -262.71704102 475.31567383 C-263.70704102 475.64567383 -264.69704102 475.97567383 -265.71704102 476.31567383 C-265.71704102 476.97567383 -265.71704102 477.63567383 -265.71704102 478.31567383 C-266.70704102 478.64567383 -267.69704102 478.97567383 -268.71704102 479.31567383 C-268.71704102 479.97567383 -268.71704102 480.63567383 -268.71704102 481.31567383 C-269.37704102 481.31567383 -270.03704102 481.31567383 -270.71704102 481.31567383 C-270.71704102 481.97567383 -270.71704102 482.63567383 -270.71704102 483.31567383 C-271.70704102 483.64567383 -272.69704102 483.97567383 -273.71704102 484.31567383 C-275.26140228 485.83912236 -275.26140228 485.83912236 -276.77954102 487.75317383 C-280.53407951 492.20060998 -284.61274556 496.2481425 -288.77563477 500.31176758 C-290.83301065 501.97035901 -290.83301065 501.97035901 -290.71704102 503.31567383 C-266.98677876 503.47627578 -243.28125605 503.03086369 -219.55772781 502.50836182 C-214.26314262 502.39240706 -208.96848396 502.27991184 -203.67382812 502.16723633 C-201.48747236 502.12067481 -199.30111677 502.07410494 -197.11476135 502.02752686 C-196.02261385 502.00426079 -194.93046635 501.98099472 -193.80522346 501.95702362 C-190.46490376 501.88569043 -187.12459412 501.81390122 -183.7842865 501.74200439 C-168.58116943 501.41532497 -153.37776916 501.10624596 -138.17407227 500.80786133 C-100.81150428 500.07270934 -63.45025993 499.3171972 -26.09370041 498.31665039 C-23.75788689 498.25426475 -21.42205236 498.19272507 -19.08621216 498.13134766 C-3.95152061 497.73171299 11.17359329 497.31378384 26.28295898 496.31567383 C35.29291144 474.2338332 43.36404851 451.97893886 50.65136719 429.27172852 C51.55980305 426.45828123 52.49347145 423.65326719 53.42358398 420.84692383 C58.04182425 406.65591223 61.65943779 392.23846166 65.22045898 377.75317383 C65.5890654 376.26057541 65.5890654 376.26057541 65.96511841 374.73782349 C66.67082394 371.8683576 67.36735513 368.99683831 68.06030273 366.12426758 C68.37534256 364.84131302 68.37534256 364.84131302 68.69674683 363.53244019 C69.9832305 358.13072628 70.76921581 352.84596801 71.28295898 347.31567383 C56.34103931 347.16962499 41.42506437 347.59604955 26.49160767 348.06328201 Z M-48.65063477 567.86645508 C-51.26556582 567.92566487 -53.8805002 567.98472768 -56.49543762 568.0436554 C-62.10786132 568.17032503 -67.72025924 568.29808734 -73.3326416 568.42657471 C-81.49945799 568.61350459 -89.66632062 568.79834867 -97.83319783 568.98259974 C-101.65726286 569.06887363 -105.48132627 569.15521921 -109.3053894 569.24157715 C-110.07085063 569.25886313 -110.83631186 569.27614911 -111.62496889 569.2939589 C-119.50430924 569.47194436 -127.38363381 569.65062434 -135.26295733 569.82935286 C-162.16900603 570.43965321 -189.07510189 571.04782648 -215.98134136 571.64966297 C-223.08270519 571.80854468 -230.18405548 571.96798152 -237.28536987 572.12905884 C-245.26776554 572.31009114 -253.25020151 572.48926083 -261.23266602 572.66723633 C-262.50256945 572.69566053 -263.77247288 572.72408474 -265.08085823 572.75337029 C-279.39457046 573.07208568 -293.70829027 573.35856272 -308.02368164 573.58813477 C-309.36774082 573.6099325 -310.71179981 573.63174168 -312.05585861 573.65356255 C-318.39029902 573.75562918 -324.72475323 573.85304385 -331.05938721 573.94229126 C-333.32906244 573.97729541 -335.59873619 574.0123956 -337.8684082 574.04760742 C-339.36386547 574.06611818 -339.36386547 574.06611818 -340.889534 574.0850029 C-342.82390615 574.1163605 -344.75806472 574.16705417 -346.69141197 574.23739147 C-348.84315351 574.29306366 -350.99758789 574.26914679 -353.14863014 574.1909914 C-360.96602067 574.17728702 -365.39754424 575.6125201 -371.10207701 581.05815768 C-372.61921415 582.57827125 -374.10278029 584.12710931 -375.58764648 585.67871094 C-376.69037068 586.78182873 -377.79595678 587.88209182 -378.90414429 588.97972107 C-381.88358718 591.94696764 -384.82134133 594.95252165 -387.7526145 597.96726298 C-390.83129694 601.12013945 -393.94638319 604.23664715 -397.05740356 607.3575592 C-402.26816696 612.5949242 -407.45474454 617.85522763 -412.62475586 623.1328125 C-419.92438021 630.58423281 -427.26695063 637.99217875 -434.61842513 645.39239872 C-440.32368053 651.13853049 -446.01749802 656.89599291 -451.70922852 662.65551758 C-452.32065122 663.2740173 -452.93207393 663.89251703 -453.56202459 664.52975917 C-457.06694458 668.07673416 -460.56597644 671.62933783 -464.05618668 675.19079018 C-465.11554472 676.27043874 -466.17659431 677.34843039 -467.2394104 678.42467499 C-468.68411398 679.88843194 -470.12191569 681.35899156 -471.55929565 682.8299408 C-472.36703871 683.65272491 -473.17478176 684.47550901 -474.00700188 685.32322598 C-475.93413439 687.13100989 -475.93413439 687.13100989 -475.71704102 689.31567383 C-477.20204102 689.81067383 -477.20204102 689.81067383 -478.71704102 690.31567383 C-478.71704102 690.97567383 -478.71704102 691.63567383 -478.71704102 692.31567383 C-479.37704102 692.31567383 -480.03704102 692.31567383 -480.71704102 692.31567383 C-482.30159968 694.10291324 -482.30159968 694.10291324 -483.84204102 696.31567383 C-484.6502832 697.42942383 -484.6502832 697.42942383 -485.47485352 698.56567383 C-485.88477539 699.14317383 -486.29469727 699.72067383 -486.71704102 700.31567383 C-446.87494404 700.61503973 -407.05812918 699.81920046 -367.22619212 699.03606927 C-358.27044983 698.86021543 -349.3145979 698.6902815 -340.35873866 698.52050805 C-310.26116405 697.94936737 -280.16412332 697.36214982 -250.06866264 696.68773079 C-234.31633399 696.33582938 -218.56394987 696.07752733 -202.80911255 695.87011719 C-195.61036366 695.77505218 -188.41174432 695.67069331 -181.21313477 695.56567383 C-180.50243773 695.55531601 -179.79174068 695.54495819 -179.05950737 695.5342865 C-165.63195919 695.33753618 -152.20554683 695.09918442 -138.77954102 694.81567383 C-137.88533447 694.79770752 -136.99112793 694.77974121 -136.06982422 694.76123047 C-131.12391128 694.66078469 -126.17985139 694.5332688 -121.23529053 694.38043213 C-118.5001647 694.31009672 -115.7658756 694.28094649 -113.0300293 694.25073242 C-111.13791492 694.20835688 -109.24582384 694.16492627 -107.35375977 694.12036133 C-106.04569115 694.11933411 -106.04569115 694.11933411 -104.7111969 694.11828613 C-98.4450984 693.92609262 -95.77519158 692.51565229 -91.46704102 687.94067383 C-90.20804185 686.3147617 -89.01605707 684.67411191 -87.86254883 682.97192383 C-86.02851492 680.32015784 -83.91928954 677.90360041 -81.84204102 675.44067383 C-80.7650293 674.10069336 -80.7650293 674.10069336 -79.66625977 672.73364258 C-78.03091677 670.70503072 -76.35818433 668.7240553 -74.65454102 666.75317383 C-72.50962631 664.57368769 -72.50962631 664.57368769 -72.71704102 662.31567383 C-72.05704102 662.31567383 -71.39704102 662.31567383 -70.71704102 662.31567383 C-68.85954814 660.06212049 -67.12201603 657.79829862 -65.40454102 655.44067383 C-64.87618652 654.72468018 -64.34783203 654.00868652 -63.8034668 653.27099609 C-62.10076871 650.95775984 -60.40848847 648.63714578 -58.71704102 646.31567383 C-58.1645166 645.56237793 -57.61199219 644.80908203 -57.04272461 644.03295898 C-45.21283238 627.9031884 -34.27615137 611.30073068 -23.71704102 594.31567383 C-22.78529053 592.81738037 -22.78529053 592.81738037 -21.8347168 591.28881836 C-19.89228818 588.15641602 -17.95931768 585.01838389 -16.02954102 581.87817383 C-15.41691406 580.88881836 -14.80428711 579.89946289 -14.1730957 578.88012695 C-13.60623047 577.95264648 -13.03936523 577.02516602 -12.45532227 576.06958008 C-11.9504126 575.2478833 -11.44550293 574.42618652 -10.92529297 573.57958984 C-9.78791668 571.44847441 -9.25045838 569.65111727 -8.71704102 567.31567383 C-22.0330322 567.19578995 -35.33928512 567.55905347 -48.65063477 567.86645508 Z M58.28295898 591.31567383 C57.80189697 592.16025146 57.32083496 593.0048291 56.82519531 593.875 C51.91649943 602.48451232 46.97151659 611.07196542 41.97045898 619.62817383 C41.60499969 620.25409424 41.23954041 620.88001465 40.86300659 621.52490234 C35.95267556 629.92283397 30.9402749 638.23205398 25.50634766 646.30517578 C23.32798526 649.56159861 21.67247629 652.66096796 20.28295898 656.31567383 C28.54066168 654.99209593 36.49221139 652.99861507 44.53295898 650.71801758 C46.44970554 650.18184837 48.36645722 649.64569693 50.28346252 649.11045361 C51.60950093 648.74004 52.93537658 648.36904328 54.26109314 647.99747944 C61.44584804 645.98458757 68.64477479 644.02457968 75.84545898 642.06958008 C77.75609131 641.55045547 77.75609131 641.55045547 79.70532227 641.02084351 C82.27131371 640.32395094 84.8373942 639.62738619 87.40356445 638.93115234 C90.70177818 638.03624933 93.99940281 637.13919348 97.29692078 636.24173069 C100.50020624 635.37039464 103.704123 634.5013897 106.90795898 633.63208008 C108.66861694 633.15249596 108.66861694 633.15249596 110.46484375 632.66322327 C111.5520874 632.3687883 112.63933105 632.07435333 113.75952148 631.77099609 C114.70907715 631.51310806 115.65863281 631.25522003 116.63696289 630.98951721 C119.17408673 630.34339981 121.71123864 629.80386289 124.28295898 629.31567383 C120.85640289 625.45638256 116.95979203 623.15580089 112.53295898 620.62817383 C111.77418457 620.18957031 111.01541016 619.7509668 110.23364258 619.29907227 C108.66629426 618.39534659 107.09711172 617.49479467 105.52612305 616.59741211 C103.53164464 615.45777218 101.5433465 614.30820677 99.55639648 613.15551758 C86.07633156 605.40003766 72.19161749 598.27000308 58.28295898 591.31567383 Z M131.00585938 684.62573242 C129.91975372 684.91414505 128.83364807 685.20255768 127.71463013 685.49971008 C126.53190521 685.81796249 125.3491803 686.1362149 124.13061523 686.46411133 C122.90003387 686.79231369 121.66945251 687.12051605 120.40158081 687.45866394 C117.07113162 688.34726568 113.74202027 689.24078482 110.41318893 690.13542557 C107.65600788 690.87581238 104.89806238 691.61332988 102.14014912 692.35098362 C86.08655852 696.64598597 70.05069077 701.00060779 54.04937744 705.48687744 C45.29593836 707.94095192 36.52852123 710.31375866 27.72045898 712.56567383 C25.60446471 713.11864284 23.48858709 713.67205839 21.37280273 714.22583008 C16.70095732 715.44546837 12.022757 716.63002143 7.33422852 717.78393555 C1.63373031 719.18883818 -4.05357827 720.6404529 -9.73678589 722.11364746 C-12.03264034 722.70045015 -14.33240799 723.27217685 -16.63601685 723.82775879 C-30.84786378 727.26614015 -40.176473 730.05380658 -48.71704102 742.31567383 C-50.29802138 744.1278331 -51.89971742 745.92231437 -53.52954102 747.69067383 C-54.41125977 748.65360352 -55.29297852 749.6165332 -56.20141602 750.60864258 C-61.11507703 755.84876748 -66.20668175 760.91799612 -71.27954102 766.00317383 C-71.77870026 766.50492126 -72.2778595 767.0066687 -72.79214478 767.52362061 C-74.22380952 768.96114137 -75.65979769 770.39435235 -77.09594727 771.82739258 C-77.93714111 772.6674585 -78.77833496 773.50752441 -79.64501953 774.37304688 C-81.71704102 776.31567383 -81.71704102 776.31567383 -83.71704102 777.31567383 C-83.71704102 777.97567383 -83.71704102 778.63567383 -83.71704102 779.31567383 C-84.59102539 779.71786133 -84.59102539 779.71786133 -85.48266602 780.12817383 C-87.74490702 781.33048373 -89.52280419 782.65393295 -91.46704102 784.31567383 C-92.08063477 784.83129883 -92.69422852 785.34692383 -93.32641602 785.87817383 C-94.94880478 787.22190634 -94.94880478 787.22190634 -94.71704102 789.31567383 C-95.28938477 789.5709082 -95.86172852 789.82614258 -96.45141602 790.08911133 C-98.95877834 791.44654541 -100.85008662 793.03541487 -102.96704102 794.94067383 C-103.67344727 795.57231445 -104.37985352 796.20395508 -105.10766602 796.85473633 C-105.63875977 797.3368457 -106.16985352 797.81895508 -106.71704102 798.31567383 C-103.82702958 800.24234812 -102.48259742 800.72097002 -99.18115234 801.31787109 C-98.25332947 801.48922577 -97.32550659 801.66058044 -96.36956787 801.83712769 C-94.84967255 802.10687912 -94.84967255 802.10687912 -93.29907227 802.38208008 C-92.23529358 802.57673859 -91.17151489 802.77139709 -90.07550049 802.97195435 C-86.56130082 803.61369182 -83.04544228 804.24583153 -79.52954102 804.87817383 C-77.07749399 805.32441172 -74.62559111 805.77144238 -72.17382812 806.21923828 C-68.40308862 806.90786354 -64.63226803 807.59600097 -60.86097717 808.28160095 C-49.81253313 810.29093055 -38.77597838 812.36041947 -27.74145508 814.4446106 C-20.01477981 815.90172131 -12.28508377 817.34275046 -4.55566406 818.78521729 C-1.68143422 819.32232771 1.19238285 819.86160754 4.06616211 820.40112305 C8.67249482 821.26485176 13.2805854 822.11854132 17.89016724 822.9647522 C19.59053787 823.27837687 21.29032658 823.59517561 22.98947144 823.91537476 C25.30845081 824.351793 27.6292665 824.7766045 29.95092773 825.19848633 C30.62561096 825.32815292 31.30029419 825.45781952 31.99542236 825.59141541 C35.70885729 826.25153195 38.6391738 826.33260491 42.28295898 825.31567383 C42.61295898 824.32567383 42.94295898 823.33567383 43.28295898 822.31567383 C43.94295898 822.31567383 44.60295898 822.31567383 45.28295898 822.31567383 C46.700024 820.76678881 48.04105395 819.14805849 49.34545898 817.50317383 C50.55588867 815.98916992 50.55588867 815.98916992 51.79077148 814.44458008 C52.20617187 813.92138184 52.62157227 813.39818359 53.04956055 812.85913086 C54.91129072 810.52938855 56.81897866 808.23801394 58.72045898 805.94067383 C77.23896914 783.28197683 94.00795074 759.20495488 109.80493164 734.5925293 C111.34390596 732.22178689 112.91572954 729.87531931 114.49389648 727.53051758 C116.4501496 724.60535353 118.27974103 721.68919399 119.90795898 718.56567383 C123.44503242 711.93366113 127.20748696 705.43443292 130.96899414 698.92797852 C133.91920306 693.79875731 136.69370502 688.63665267 139.28295898 683.31567383 C136.21724611 683.31567383 133.96011216 683.83616031 131.00585938 684.62573242 Z M-268.27954102 766.12817383 C-301.09954804 766.89364113 -333.92016961 767.52942357 -366.74438477 768.08129883 C-368.20771362 768.10591143 -368.20771362 768.10591143 -369.70060468 768.13102126 C-389.6265878 768.46584836 -409.55268206 768.7938998 -429.47881252 769.1198265 C-477.20159422 769.87708863 -477.20159422 769.87708863 -524.92166138 770.78428459 C-526.73468793 770.82237762 -528.54773666 770.85943437 -530.36080933 770.89526558 C-531.18855865 770.91182638 -532.01630798 770.92838718 -532.86914062 770.94544983 C-534.0500273 770.96906932 -534.0500273 770.96906932 -535.25477028 770.99316597 C-537.43621523 771.047481 -539.61455427 771.13361009 -541.79476929 771.22361755 C-545.71704102 771.31567383 -545.71704102 771.31567383 -549.32998657 771.01820374 C-556.44472054 770.70981671 -560.47112036 772.37707264 -565.71616173 776.96157074 C-569.47644781 780.50313025 -573.04719728 784.21125942 -576.61547852 787.94458008 C-578.1844388 789.53781772 -579.75631715 791.12818653 -581.33096313 792.71580505 C-585.44725171 796.88148808 -589.52298781 801.08471126 -593.59124756 805.29724121 C-597.75763101 809.59713847 -601.96153812 813.86000376 -606.16235352 818.1262207 C-614.3842047 826.48706585 -622.56365246 834.88808876 -630.71704102 843.31567383 C-628.42396532 845.60874952 -627.31167895 845.8430642 -624.20532227 846.57739258 C-623.23965332 846.80579834 -622.27398438 847.0342041 -621.27905273 847.26953125 C-620.20671387 847.5116333 -619.134375 847.75373535 -618.02954102 848.00317383 C-616.9004834 848.2601001 -615.77142578 848.51702637 -614.6081543 848.78173828 C-571.29461115 858.38619575 -527.9260354 863.70537214 -483.55126953 863.63134766 C-480.54558309 863.62672465 -477.54030223 863.63363158 -474.53466797 863.65185547 C-448.26876727 863.80934248 -422.43123569 862.25762165 -396.46704102 858.00317383 C-395.82068695 857.89929352 -395.17433289 857.79541321 -394.50839233 857.68838501 C-334.89301942 848.07427747 -275.62495387 827.87318706 -224.12719727 796.00708008 C-221.12608171 794.15081604 -218.09150134 792.39293915 -214.99829102 790.69458008 C-209.95839484 787.92463172 -205.23786579 784.76481455 -200.48999023 781.52368164 C-198.50909892 780.17399144 -196.52117253 778.8349644 -194.53344727 777.49536133 C-193.09430856 776.51929496 -191.65550348 775.54273651 -190.21704102 774.56567383 C-189.53440186 774.10596191 -188.8517627 773.64625 -188.1484375 773.17260742 C-187.50076416 772.72997559 -186.85309082 772.28734375 -186.18579102 771.83129883 C-185.61280273 771.44232422 -185.03981445 771.05334961 -184.44946289 770.65258789 C-182.35525804 769.03648505 -180.55470233 767.2147247 -178.71704102 765.31567383 C-208.58726712 765.01995154 -238.4191319 765.43160215 -268.27954102 766.12817383 Z M-177.21704102 849.00317383 C-178.52882788 849.83189319 -179.84278095 850.65718985 -181.15844727 851.47973633 C-181.87790527 851.93251953 -182.59736328 852.38530273 -183.33862305 852.85180664 C-196.03740088 860.66764239 -209.19507139 867.86072056 -222.63696289 874.31469727 C-224.91407758 875.41049189 -227.1824839 876.52335442 -229.45141602 877.63598633 C-259.87511238 892.4542474 -291.26499028 903.80510684 -323.71704102 913.31567383 C-323.71704102 913.97567383 -323.71704102 914.63567383 -323.71704102 915.31567383 C-299.61929413 919.99252819 -275.50939662 924.57400856 -251.34204102 928.87817383 C-235.45248383 931.7085939 -219.59686527 934.66345817 -203.76531982 937.80166626 C-186.96429461 941.12716068 -170.11630225 944.17265119 -153.25415039 947.17114258 C-152.25746338 947.34867065 -151.26077637 947.52619873 -150.23388672 947.70910645 C-148.27041225 948.05846448 -146.30671084 948.40654974 -144.34277344 948.7532959 C-139.47606828 949.61828232 -134.62238662 950.52436133 -129.77758789 951.50512695 C-128.82362122 951.69600891 -127.86965454 951.88689087 -126.88677979 952.08355713 C-125.08994736 952.44578068 -123.29481352 952.8165821 -121.50189209 953.19769287 C-113.36475252 954.83187816 -108.43030903 953.57472582 -101.46704102 949.00317383 C-100.77594238 948.55949463 -100.08484375 948.11581543 -99.37280273 947.65869141 C-97.1463729 946.22271151 -94.93114486 944.77057387 -92.71704102 943.31567383 C-91.98839844 942.84129883 -91.25975586 942.36692383 -90.5090332 941.87817383 C-73.82892721 931.0091539 -57.77921561 919.47150657 -42.45678711 906.75561523 C-40.01693 904.73621063 -37.55284538 902.74696422 -35.09204102 900.75317383 C-25.43610891 892.84228969 -15.99741992 884.66310459 -6.71704102 876.31567383 C-9.93029649 874.17350351 -11.93675777 873.71697757 -15.69677734 873.00634766 C-16.93671951 872.76856598 -18.17666168 872.5307843 -19.45417786 872.28579712 C-20.81911433 872.03128114 -22.18407999 871.77692161 -23.54907227 871.52270508 C-24.96561992 871.25378246 -26.38205577 870.98427029 -27.79838562 870.71420288 C-31.58897069 869.9932501 -35.38112626 869.28090745 -39.17367554 868.57036972 C-43.10567856 867.83233285 -47.03625398 867.08676566 -50.96704102 866.34228516 C-59.88165192 864.65574232 -68.79887111 862.98328196 -77.71704102 861.31567383 C-78.80740662 861.1116394 -79.89777222 860.90760498 -81.0211792 860.6973877 C-92.58027864 858.5358928 -104.14610932 856.4128293 -115.71704102 854.31567383 C-117.63533612 853.9678594 -119.55363034 853.62004011 -121.47192383 853.2722168 C-122.48003113 853.08945694 -123.48813843 852.90669708 -124.52679443 852.71839905 C-127.61173898 852.15902881 -130.69661752 851.59929549 -133.78149414 851.03955078 C-137.74076457 850.32120631 -141.70043076 849.60510423 -145.66040039 848.890625 C-147.45272482 848.56619924 -149.24504286 848.24173817 -151.03735352 847.91723633 C-151.85829498 847.76967392 -152.67923645 847.62211151 -153.52505493 847.47007751 C-159.31856331 846.41905504 -159.31856331 846.41905504 -161.75119019 845.78793335 C-168.03897362 844.27740897 -171.92041364 845.55665345 -177.21704102 849.00317383 Z M-619.71704102 919.31567383 C-618.72704102 920.80067383 -618.72704102 920.80067383 -617.71704102 922.31567383 C-617.05704102 922.31567383 -616.39704102 922.31567383 -615.71704102 922.31567383 C-615.71704102 922.97567383 -615.71704102 923.63567383 -615.71704102 924.31567383 C-614.00523767 925.80312952 -612.21686196 927.20248348 -610.40454102 928.56567383 C-609.82623535 929.00113525 -609.24792969 929.43659668 -608.65209961 929.88525391 C-607.36763417 930.84969379 -606.08070788 931.81086221 -604.79174805 932.76928711 C-602.663273 934.35574992 -600.54743831 935.95812575 -598.43188477 937.56176758 C-579.76456422 951.61730446 -560.18291868 964.05639257 -539.71704102 975.31567383 C-538.59096436 975.94650879 -538.59096436 975.94650879 -537.44213867 976.59008789 C-498.64554239 998.28594847 -455.84222412 1012.08146732 -412.15454102 1019.62817383 C-411.30085937 1019.77577148 -410.44717773 1019.92336914 -409.56762695 1020.07543945 C-406.62242616 1020.54587647 -403.67635582 1020.94311742 -400.71704102 1021.31567383 C-400.03354584 1021.40180939 -399.35005066 1021.48794495 -398.64584351 1021.57669067 C-383.785669 1023.38113047 -368.99357467 1023.6567967 -354.03613281 1023.63134766 C-350.184035 1023.62819794 -346.33271601 1023.65170991 -342.48071289 1023.67700195 C-320.44568264 1023.73349302 -298.66273045 1021.91485942 -276.96704102 1018.00317383 C-275.77860596 1017.79297607 -274.5901709 1017.58277832 -273.36572266 1017.36621094 C-254.81670564 1013.98252778 -236.67638079 1009.01851593 -218.71704102 1003.31567383 C-217.76442383 1003.0145166 -216.81180664 1002.71335937 -215.83032227 1002.40307617 C-212.89293698 1001.46858448 -209.96046415 1000.52022339 -207.02954102 999.56567383 C-206.11342041 999.27184814 -205.1972998 998.97802246 -204.25341797 998.67529297 C-203.41254639 998.3967749 -202.5716748 998.11825684 -201.70532227 997.83129883 C-200.95806885 997.58669922 -200.21081543 997.34209961 -199.44091797 997.09008789 C-197.51794965 996.44467785 -197.51794965 996.44467785 -196.71704102 994.31567383 C-241.23323892 984.83796805 -241.23323892 984.83796805 -285.77954102 975.50317383 C-306.34238513 971.23198296 -326.89905858 966.93174532 -347.45328522 962.61930084 C-349.20951875 962.25083237 -350.96575957 961.88239861 -352.72200775 961.51399994 C-372.00205504 957.46968928 -391.28000908 953.41594077 -410.54907227 949.31958008 C-411.29430649 949.16120289 -412.03954071 949.0028257 -412.80735779 948.8396492 C-425.5662276 946.12802951 -425.5662276 946.12802951 -431.87811279 944.77966309 C-439.25533302 943.20390073 -446.63463976 941.63891993 -454.01812744 940.09277344 C-456.57188025 939.55625906 -459.1246982 939.01638004 -461.67669678 938.47167969 C-465.66776663 937.62057369 -469.66288715 936.78997707 -473.65844727 935.96020508 C-474.85092575 935.70354568 -476.04340424 935.44688629 -477.27201843 935.18244934 C-485.69447108 933.45662957 -493.87753596 932.82974868 -502.46704102 932.69067383 C-503.24264877 932.674767 -504.01825653 932.65886017 -504.81736755 932.64247131 C-506.61583052 932.61112871 -508.41449291 932.59189514 -510.21313477 932.57348633 C-542.9745145 931.98069023 -576.90445433 927.4956748 -608.90014648 920.48364258 C-612.57120157 919.6828671 -615.95364639 919.11604386 -619.71704102 919.31567383 Z " fill="#FBFBFB" transform="translate(916.717041015625,-0.315673828125)"/>
</svg>
