<?xml version="1.0" encoding="UTF-8"?>
<svg version="1.1" xmlns="http://www.w3.org/2000/svg" width="2685" height="2552">
<path d="M0 0 C6.1643331 0.00565906 12.32862268 0.00232926 18.49295425 -0.00343323 C57.00589428 -0.03409771 95.47656935 0.33722959 133.94238281 2.38037109 C135.73563995 2.47357635 135.73563995 2.47357635 137.56512451 2.56866455 C179.44480868 4.76155655 221.33977718 7.53670026 263.06738281 11.75537109 C264.5447995 11.90265656 264.5447995 11.90265656 266.05206299 12.05291748 C292.87766028 14.7591259 316.2782511 19.2869823 336.19238281 39.13037109 C336.8046875 39.71947266 337.41699219 40.30857422 338.04785156 40.91552734 C342.05979838 45.09272597 344.98761337 49.83374959 347.87988281 54.81787109 C348.24863525 55.44056885 348.6173877 56.0632666 348.99731445 56.70483398 C354.43085786 66.43518085 356.72520877 77.23674159 358.12988281 88.19287109 C358.29045166 89.41304932 358.45102051 90.63322754 358.61645508 91.89038086 C365.96846641 149.25668611 369.91263904 207.54219155 372.08677197 265.33341503 C372.16073578 267.2922435 372.23604481 269.25102143 372.31235981 271.20975971 C373.02628822 289.75396219 373.35598887 308.26411109 373.35963988 326.82330966 C373.36036878 328.92614978 373.36253619 331.02898399 373.3651371 333.13182259 C373.37430688 340.58048013 373.37848395 348.0291202 373.37768555 355.4777832 C373.37715689 361.49311014 373.38413268 367.5083714 373.39819336 373.52368164 C373.48622635 412.10322072 373.04649927 450.58463258 371.19238281 489.13037109 C371.15237782 489.96436054 371.11237282 490.79834999 371.07115555 491.65761185 C370.59702678 501.42525431 370.02224504 511.18478631 369.37988281 520.94287109 C369.2959024 522.24761383 369.211922 523.55235657 369.12539673 524.89663696 C362.67965097 624.93272812 350.1060322 724.42347837 195.66552734 1261.96972656 C195.24827896 1262.93502792 194.83103058 1263.90032928 194.40113831 1264.8948822 C193.59166008 1266.76555841 192.77906263 1268.63488869 191.96299744 1270.50270081 C191.60049393 1271.34074753 191.23799042 1272.17879425 190.86450195 1273.04223633 C190.54115372 1273.78465073 190.21780548 1274.52706512 189.88465881 1275.29197693 C189.0749136 1277.11491691 189.0749136 1277.11491691 189.19238281 1279.13037109 C190.40631714 1279.73341064 190.40631714 1279.73341064 191.64477539 1280.34863281 C221.29678583 1295.09156445 221.29678583 1295.09156445 235.5859375 1302.73730469 C238.6416485 1304.37049005 241.70232247 1305.99422005 244.76269531 1307.61865234 C258.76500316 1315.06299407 272.64822468 1322.6904684 286.41992188 1330.55517578 C289.18811055 1332.12794377 291.96570253 1333.68260728 294.74707031 1335.23193359 C307.32809853 1342.25397918 319.6762788 1349.60385603 331.96655273 1357.11808777 C337.69557322 1360.62034121 343.44915187 1364.06957251 349.25488281 1367.44287109 C357.49297911 1372.24792433 365.54440908 1377.33097519 373.58007812 1382.46582031 C376.26547861 1384.17694746 378.95880834 1385.87503984 381.65332031 1387.57177734 C456.26016552 1434.72692021 456.26016552 1434.72692021 489.19238281 1462.13037109 C490.1759375 1462.90251953 491.15949219 1463.67466797 492.17285156 1464.47021484 C502.31555921 1472.95501067 508.95087494 1487.32314089 511.19238281 1500.13037109 C512.08929101 1511.15242363 512.30032017 1522.75465303 508.19238281 1533.13037109 C507.71905256 1534.43090724 507.24646905 1535.73171528 506.77441406 1537.03271484 C500.87371193 1552.81075373 493.36509265 1567.94107719 486.10546875 1583.125 C484.48136623 1586.52191587 482.86967703 1589.92453507 481.26269531 1593.32958984 C474.71724392 1607.1468464 467.89585206 1620.82645592 461.06738281 1634.50537109 C460.603703 1635.43540955 460.14002319 1636.365448 459.66229248 1637.32366943 C453.33176032 1650.01248081 446.84949998 1662.60992053 440.19238281 1675.13037109 C439.54319751 1676.35476641 438.89410248 1677.57920959 438.24511719 1678.80371094 C426.50365825 1700.9137912 414.62180194 1722.97089396 401.77929688 1744.46484375 C400.16878773 1747.17000357 398.56779924 1749.88060666 396.96861267 1752.59246826 C380.71487492 1780.15383346 380.71487492 1780.15383346 372.13061523 1793.53417969 C370.24333337 1796.47910485 368.37027212 1799.43206297 366.51416016 1802.39672852 C359.53419723 1813.54100171 352.35011434 1824.53526765 345.03833008 1835.46435547 C343.25693748 1838.12729964 341.47926598 1840.79269754 339.70214844 1843.45849609 C328.09899289 1860.84564797 316.32947853 1878.11103075 304.19238281 1895.13037109 C303.68771484 1895.83983887 303.18304687 1896.54930664 302.66308594 1897.28027344 C295.68982745 1907.06965555 288.5265628 1916.69497107 281.21166992 1926.23168945 C276.73132824 1932.08059142 272.34503294 1937.98944947 268.00488281 1943.94287109 C262.64541831 1951.2761576 257.04397564 1958.3624217 251.27050781 1965.37255859 C248.37278118 1968.89277321 245.55507719 1972.46989615 242.75488281 1976.06787109 C234.11817197 1987.13073128 225.1238438 1997.909046 216.02661133 2008.5949707 C213.17929348 2011.94416721 210.39239306 2015.33604022 207.62988281 2018.75537109 C203.79868349 2023.46754138 199.75126086 2027.93801113 195.63769531 2032.40380859 C193.34828901 2034.95653319 191.20000409 2037.57134964 189.06738281 2040.25537109 C184.35708075 2046.1011924 179.22240837 2051.51394474 174.03955078 2056.94140625 C170.21507744 2060.95073699 166.50176841 2065.02581763 162.87207031 2069.2121582 C159.67822336 2072.85954999 156.34399687 2076.37551791 153.02575684 2079.90933228 C149.95252725 2083.18246887 146.88412685 2086.45963494 143.83276367 2089.75317383 C132.66335216 2101.76728248 121.09951905 2113.37801655 109.48974609 2124.96337891 C106.71863319 2127.7287313 103.95212468 2130.49864024 101.18685913 2133.26983833 C99.02150905 2135.43882019 96.85376084 2137.60539275 94.68530273 2139.77126694 C93.66405227 2140.79185868 92.64352071 2141.81317039 91.6237793 2142.83526993 C86.48213262 2147.986224 81.31687861 2153.04111276 75.77758789 2157.76535034 C73.81183549 2159.45806055 71.9936811 2161.26474073 70.19238281 2163.13037109 C67.13121028 2166.23283112 63.96096013 2169.11143534 60.65722656 2171.95068359 C57.27252609 2174.94381016 53.98704701 2178.03880263 50.69238281 2181.13037109 C45.60534162 2185.89576085 40.49654583 2190.60623205 35.19238281 2195.13037109 C34.17135471 2196.00514382 33.1505421 2196.88016808 32.12988281 2197.75537109 C30.36032401 2199.27246006 28.59041984 2200.78913493 26.81933594 2202.30444336 C22.40634853 2206.08175044 18.01476869 2209.88300578 13.62988281 2213.69287109 C4.53565841 2221.58510692 -4.58635993 2229.43317379 -14.02636719 2236.91162109 C-16.88278473 2239.19033621 -19.71398809 2241.49781435 -22.54345703 2243.80981445 C-29.56922138 2249.54622797 -36.65553267 2255.17484514 -43.87841797 2260.66210938 C-46.12821675 2262.37437081 -48.37218647 2264.09414309 -50.61621094 2265.81396484 C-67.03338418 2278.38142504 -83.60836809 2290.699102 -100.55078125 2302.55029297 C-103.00110096 2304.26583485 -105.44746209 2305.98693299 -107.89355469 2307.70849609 C-109.63563028 2308.9326137 -111.37781591 2310.15657473 -113.12011719 2311.38037109 C-113.90765381 2311.93466797 -114.69519043 2312.48896484 -115.5065918 2313.06005859 C-153.22534422 2339.49803393 -192.6696645 2363.5666325 -232.80761719 2386.13037109 C-233.82855469 2386.70658203 -234.84949219 2387.28279297 -235.90136719 2387.87646484 C-286.53289231 2416.38683554 -338.95010248 2441.34661376 -392.80761719 2463.13037109 C-393.55426636 2463.43245483 -394.30091553 2463.73453857 -395.07019043 2464.04577637 C-485.77390488 2500.64257283 -580.97806471 2526.37261727 -744.12011719 2547.38037109 C-745.61109924 2547.50513321 -745.61109924 2547.50513321 -747.13220215 2547.63241577 C-750.01971448 2547.87122107 -752.90764424 2548.10384988 -755.79589844 2548.33349609 C-757.02059593 2548.43314415 -757.02059593 2548.43314415 -758.27003479 2548.5348053 C-774.73969531 2549.80832189 -791.19156974 2550.29965777 -807.70605469 2550.33349609 C-808.6673592 2550.33632347 -809.62866371 2550.33915085 -810.61909866 2550.3420639 C-815.72962957 2550.35692731 -820.84013329 2550.36623158 -825.95068359 2550.37060547 C-830.05884934 2550.37493999 -834.16679912 2550.38865326 -838.27490234 2550.41162109 C-875.57225116 2550.61560018 -912.73192139 2549.1511587 -949.80761719 2544.88037109 C-950.72268036 2544.77776978 -951.63774353 2544.67516846 -952.58053589 2544.56945801 C-1001.25079941 2539.08963228 -1049.36834481 2530.29903862 -1096.80761719 2518.13037109 C-1098.00644531 2517.8284082 -1099.20527344 2517.52644531 -1100.44042969 2517.21533203 C-1134.07601466 2508.72399563 -1167.33535414 2498.33469907 -1199.80761719 2486.13037109 C-1200.56949341 2485.84440063 -1201.33136963 2485.55843018 -1202.11633301 2485.26379395 C-1255.5292983 2465.17361831 -1307.83978775 2441.52725945 -1357.40917969 2413.20068359 C-1361.38017562 2410.93293688 -1365.37465719 2408.71633067 -1369.390625 2406.52954102 C-1388.70229807 2395.98429216 -1407.47352646 2384.28618551 -1425.80761719 2372.13037109 C-1426.80083984 2371.47456055 -1427.7940625 2370.81875 -1428.81738281 2370.14306641 C-1443.63344534 2360.3543494 -1458.3414242 2350.43205398 -1472.80761719 2340.13037109 C-1473.55237305 2339.60169434 -1474.29712891 2339.07301758 -1475.06445312 2338.52832031 C-1497.32674133 2322.69962916 -1518.84861465 2305.88473232 -1539.99902344 2288.60693359 C-1541.59997199 2287.29989569 -1543.20359695 2285.99613754 -1544.80761719 2284.69287109 C-1551.30800861 2279.40185482 -1557.7223503 2274.01479179 -1564.10302734 2268.58056641 C-1565.82881048 2267.11234071 -1567.55835991 2265.64863577 -1569.28808594 2264.18505859 C-1575.72028462 2258.72559486 -1582.03588648 2253.16967849 -1588.19433594 2247.40209961 C-1590.97436275 2244.80132585 -1593.79228119 2242.2592724 -1596.66699219 2239.76318359 C-1600.9339693 2236.04696429 -1605.06871565 2232.20215077 -1609.18261719 2228.31787109 C-1610.29624634 2227.26901733 -1610.29624634 2227.26901733 -1611.43237305 2226.19897461 C-1616.19389877 2221.69917961 -1620.87317145 2217.14033882 -1625.43652344 2212.43896484 C-1627.39003145 2210.53694963 -1629.37467423 2208.76686476 -1631.44213867 2206.99365234 C-1635.82052462 2203.17343468 -1639.93398502 2199.13172985 -1644.02636719 2195.00927734 C-1645.14138611 2193.892136 -1645.14138611 2193.892136 -1646.27893066 2192.75242615 C-1648.6242102 2190.40160364 -1650.96596554 2188.04730679 -1653.30761719 2185.69287109 C-1654.9089468 2184.0865191 -1656.51050717 2182.48039712 -1658.11230469 2180.87451172 C-1662.01341191 2176.96245125 -1665.91164139 2173.04754157 -1669.80761719 2169.13037109 C-1672.83018074 2170.48505371 -1674.92625274 2171.9992341 -1677.2631731 2174.33703804 C-1678.26663689 2175.33360363 -1678.26663689 2175.33360363 -1679.29037267 2176.35030186 C-1680.01711759 2177.08219035 -1680.74386251 2177.81407883 -1681.49263 2178.56814575 C-1682.27106724 2179.34416858 -1683.04950448 2180.1201914 -1683.85153073 2180.91973007 C-1686.46708506 2183.52963439 -1689.07541043 2186.14664612 -1691.68383789 2188.76367188 C-1693.55439889 2190.63316028 -1695.42534865 2192.50225196 -1697.29678345 2194.37086487 C-1701.85743422 2198.92647203 -1706.41272198 2203.48740596 -1710.96622483 2208.05015655 C-1716.27230151 2213.36662086 -1721.58360508 2218.67785047 -1726.89512076 2223.9888799 C-1736.37715124 2233.47040958 -1745.85434066 2242.95676347 -1755.32885742 2252.44580078 C-1764.51404415 2261.64505729 -1773.70270747 2270.84082236 -1782.89526367 2280.03271484 C-1783.46077111 2280.59818233 -1784.02627855 2281.16364981 -1784.60892258 2281.74625267 C-1785.4557402 2282.59300976 -1785.4557402 2282.59300976 -1786.31966525 2283.45687306 C-1796.79106277 2293.92757947 -1807.25916112 2304.40157877 -1817.72574038 2314.8771014 C-1821.4221932 2318.57656368 -1825.11961552 2322.27505531 -1828.81734657 2325.9732399 C-1833.33014363 2330.48672139 -1837.84102953 2335.00210345 -1842.34959046 2339.51981659 C-1844.64793473 2341.8227572 -1846.94729936 2344.12466138 -1849.24830818 2346.42494011 C-1851.74841281 2348.92455175 -1854.24540913 2351.42722864 -1856.74165344 2353.93069458 C-1857.4617062 2354.64919873 -1858.18175895 2355.36770289 -1858.92363149 2356.10797989 C-1862.8200674 2360.02297943 -1866.51929431 2364.04461501 -1870.1285637 2368.22493911 C-1872.75678417 2371.20750958 -1875.55043569 2374.01127853 -1878.36607361 2376.81581116 C-1878.98711001 2377.43840755 -1879.60814642 2378.06100395 -1880.24800211 2378.70246691 C-1882.30580113 2380.76421803 -1884.36711194 2382.82241975 -1886.4284668 2384.88061523 C-1887.91424388 2386.36774893 -1889.39980849 2387.85509493 -1890.88517761 2389.34263611 C-1894.9035004 2393.36550228 -1898.92496138 2397.38521739 -1902.94714427 2401.40422368 C-1907.16495871 2405.61949852 -1911.38032382 2409.83722162 -1915.59608459 2414.05455017 C-1922.67480762 2421.13509022 -1929.75563124 2428.21352445 -1936.83764648 2435.29077148 C-1945.01414848 2443.46183177 -1953.18704189 2451.63648816 -1961.35807031 2459.81302172 C-1968.38573289 2466.84522872 -1975.41535044 2473.875477 -1982.44659239 2480.90410513 C-1986.64074753 2485.09670483 -1990.83423262 2489.28996873 -1995.02595329 2493.48500252 C-1998.96763709 2497.42958435 -2002.91177713 2501.37169392 -2006.85778999 2505.31194496 C-2008.30176844 2506.75460616 -2009.74490589 2508.19810971 -2011.18711853 2509.64253616 C-2024.42487421 2522.89873041 -2024.42487421 2522.89873041 -2030.23514652 2527.76790524 C-2032.63065008 2529.84348724 -2034.78999479 2532.13343594 -2036.98120117 2534.42041016 C-2046.09325961 2543.91295489 -2054.82034195 2550.9369361 -2068.43261719 2551.46630859 C-2080.52921004 2551.63869759 -2091.37249595 2551.42355696 -2102.80761719 2547.13037109 C-2103.98195313 2546.70626953 -2105.15628906 2546.28216797 -2106.36621094 2545.84521484 C-2119.34604334 2540.74142532 -2129.79720206 2532.72158961 -2139.80761719 2523.13037109 C-2140.566875 2522.43427734 -2141.32613281 2521.73818359 -2142.10839844 2521.02099609 C-2150.62677691 2512.95869661 -2156.80744771 2503.50344297 -2162.12011719 2493.13037109 C-2162.43343994 2492.52700928 -2162.7467627 2491.92364746 -2163.06958008 2491.30200195 C-2168.41659555 2480.42368968 -2170.56463029 2469.77536729 -2170.49511719 2457.69287109 C-2170.4900415 2456.42040527 -2170.48496582 2455.14793945 -2170.47973633 2453.83691406 C-2170.1848077 2441.90034808 -2167.73168031 2433.96596697 -2159.30761719 2425.25537109 C-2158.76028931 2424.77845825 -2158.21296143 2424.30154541 -2157.64904785 2423.81018066 C-2155.80688542 2422.12970355 -2154.23206907 2420.37445055 -2152.62207031 2418.47216797 C-2148.70683523 2413.94974358 -2144.52786811 2409.74115922 -2140.27636719 2405.53662109 C-2139.48161987 2404.7456604 -2138.68687256 2403.95469971 -2137.86804199 2403.13977051 C-2134.50226171 2399.79018537 -2131.13050671 2396.44663839 -2127.75927734 2393.10253906 C-2125.28371491 2390.6451617 -2122.81123636 2388.18471052 -2120.33886719 2385.72412109 C-2119.58762573 2384.98117798 -2118.83638428 2384.23823486 -2118.06237793 2383.47277832 C-2117.34473267 2382.75843628 -2116.6270874 2382.04409424 -2115.88769531 2381.30810547 C-2115.267052 2380.69269897 -2114.64640869 2380.07729248 -2114.00695801 2379.4432373 C-2112.18899148 2377.53143113 -2110.47548823 2375.58610579 -2108.76081085 2373.58356476 C-2104.49705871 2368.70288946 -2099.94779177 2364.13787455 -2095.35717773 2359.56640625 C-2094.42508578 2358.63416544 -2093.49299383 2357.70192463 -2092.53265667 2356.7414341 C-2089.96466454 2354.17314845 -2087.39358565 2351.60797306 -2084.82196951 2349.04331684 C-2082.04163332 2346.26938699 -2079.26423014 2343.49252315 -2076.48648071 2340.71600342 C-2071.6781542 2335.91055661 -2066.86805745 2331.10688777 -2062.05679321 2326.30438232 C-2055.09248212 2319.3526559 -2048.13143818 2312.39766516 -2041.1712693 2305.44179177 C-2029.86658695 2294.14416895 -2018.56003835 2282.84841597 -2007.25195312 2271.55419922 C-2006.2378549 2270.54134271 -2006.2378549 2270.54134271 -2005.20326984 2269.50802445 C-1999.71817131 2264.02967021 -1994.23298223 2258.55140663 -1988.74778938 2253.07314682 C-1983.95291099 2248.28432126 -1979.15806878 2243.4954595 -1974.36328125 2238.70654297 C-1973.68804314 2238.03213299 -1973.01280504 2237.35772301 -1972.31710517 2236.66287637 C-1961.04997555 2225.40944259 -1949.78481705 2214.15403765 -1938.52105808 2202.89723015 C-1931.57992208 2195.9605688 -1924.63701548 2189.02568875 -1917.69179749 2182.09311438 C-1912.93249026 2177.34224673 -1908.174964 2172.58960056 -1903.41882205 2167.83556414 C-1900.67698108 2165.09506506 -1897.93432384 2162.35539611 -1895.18944168 2159.61794281 C-1892.20958943 2156.64612471 -1889.23365691 2153.67041142 -1886.25805664 2150.69433594 C-1884.96509942 2149.40677115 -1884.96509942 2149.40677115 -1883.64602184 2148.09319496 C-1879.38584565 2143.82573496 -1875.29810638 2139.48181285 -1871.36544323 2134.91117382 C-1869.1652724 2132.39608542 -1866.8208474 2130.04951215 -1864.44140625 2127.70446777 C-1863.70246234 2126.97376737 -1863.70246234 2126.97376737 -1862.94859028 2126.22830534 C-1861.32592454 2124.6247976 -1859.69956358 2123.02509218 -1858.07324219 2121.42529297 C-1856.89789665 2120.26498954 -1855.722851 2119.10438227 -1854.54808044 2117.9434967 C-1852.03264947 2115.45817373 -1849.51599369 2112.97409983 -1846.99862671 2110.49073792 C-1843.01832064 2106.56239979 -1839.04631612 2102.62574052 -1835.07641602 2098.68688965 C-1834.40472917 2098.02049296 -1833.73304232 2097.35409627 -1833.04100132 2096.66750574 C-1830.97484214 2094.61745096 -1828.90879765 2092.56728064 -1826.84277344 2090.51708984 C-1818.30430994 2082.04424999 -1809.75996822 2073.57764501 -1801.18994141 2065.13671875 C-1794.92443647 2058.96548266 -1788.67493823 2052.77853686 -1782.44375801 2046.57263803 C-1779.14955564 2043.29302475 -1775.84772145 2040.02201161 -1772.52624512 2036.77000427 C-1769.40739691 2033.71608 -1766.31013853 2030.64183972 -1763.22822762 2027.55065727 C-1762.09398447 2026.42048859 -1760.95199726 2025.29803116 -1759.80187798 2024.1840229 C-1753.75139604 2018.79596192 -1753.75139604 2018.79596192 -1750.33485317 2011.79167366 C-1750.51222657 2009.39526111 -1750.51222657 2009.39526111 -1751.80761719 2006.13037109 C-1751.99969254 2005.3116452 -1752.19176788 2004.49291931 -1752.3896637 2003.64938354 C-1752.6056572 2002.94814362 -1752.8216507 2002.24690369 -1753.04418945 2001.52441406 C-1753.29340652 2000.70158432 -1753.5426236 1999.87875458 -1753.7993927 1999.0309906 C-1754.07152084 1998.15370804 -1754.34364899 1997.27642548 -1754.62402344 1996.37255859 C-1755.22196668 1994.39740212 -1755.81926514 1992.42205037 -1756.41601562 1990.4465332 C-1756.73372925 1989.40125458 -1757.05144287 1988.35597595 -1757.37878418 1987.27902222 C-1771.48279764 1940.70373507 -1783.30870363 1893.50669346 -1793.23522949 1845.8704834 C-1793.78493125 1843.23897236 -1794.34063107 1840.60880746 -1794.8984375 1837.97900391 C-1810.62906917 1763.64268932 -1820.07703752 1688.10803577 -1825.90917969 1612.38818359 C-1825.98615082 1611.42105438 -1826.06312195 1610.45392517 -1826.14242554 1609.45748901 C-1827.71527186 1588.27167006 -1827.97894155 1567.04877394 -1828.01074219 1545.81396484 C-1828.01505469 1543.82003736 -1828.01936768 1541.82610987 -1828.02371669 1539.83218247 C-1828.03541728 1534.27673021 -1828.04302377 1528.72128765 -1828.04651189 1523.16582435 C-1828.05050883 1516.8475424 -1828.06267652 1510.52941265 -1828.08886719 1504.21118164 C-1828.22989347 1469.4203116 -1827.64669901 1434.82855689 -1824.80761719 1400.13037109 C-1824.69341336 1398.72883663 -1824.69341336 1398.72883663 -1824.57690239 1397.29898834 C-1816.88259561 1303.38059412 -1800.63406728 1209.91537274 -1716.83190918 966.45892334 C-1715.87942037 964.29360331 -1714.93264112 962.12590631 -1713.98828125 959.95703125 C-1705.91969686 941.45571554 -1697.06792283 923.34937771 -1688.06876755 905.28520203 C-1687.20104634 903.54238601 -1686.33525847 901.79860784 -1685.46951294 900.05480957 C-1678.58218022 886.20588111 -1671.4074537 872.587945 -1663.69384766 859.18041992 C-1660.89442407 854.3138629 -1658.2139561 849.38861641 -1655.55761719 844.44287109 C-1649.39607352 833.11489806 -1642.62050341 822.15792593 -1635.88276672 811.16772461 C-1633.17011309 806.73790736 -1630.50435775 802.28177718 -1627.85327148 797.81494141 C-1622.90211607 789.4790702 -1617.7420788 781.34593852 -1612.29199219 773.32910156 C-1610.55296613 770.75316921 -1608.83586542 768.16327207 -1607.12011719 765.57177734 C-1577.47210737 720.81228648 -1545.45229664 677.55533418 -1510.6418457 636.66577148 C-1507.79452785 633.31657498 -1505.00762744 629.92470196 -1502.24511719 626.50537109 C-1498.37182447 621.74517056 -1494.30001726 617.20232326 -1490.14746094 612.68505859 C-1488.1492687 610.50339295 -1486.1861283 608.30025801 -1484.24511719 606.06787109 C-1480.91215713 602.2353573 -1477.51926062 598.45929139 -1474.11621094 594.68896484 C-1472.62642438 593.03784777 -1471.13924842 591.38436965 -1469.65527344 589.72802734 C-1460.82333895 579.87395216 -1451.95163967 570.10182868 -1442.47558594 560.86083984 C-1440.50231843 558.84134645 -1438.67903184 556.82941289 -1436.85449219 554.68505859 C-1431.77817355 548.82935671 -1426.24229034 543.41608802 -1420.75610352 537.94848633 C-1418.87433445 536.07207634 -1416.99796981 534.1903814 -1415.12207031 532.30810547 C-1409.71886733 526.90221668 -1404.32615489 521.56067184 -1398.50073242 516.60522461 C-1395.62054703 514.09632772 -1392.97576454 511.36067368 -1390.30761719 508.63037109 C-1386.35745045 504.6356875 -1382.38165646 500.77194912 -1378.09667969 497.13427734 C-1374.75916339 494.21252673 -1371.54145666 491.16595547 -1368.30761719 488.13037109 C-1363.22075469 483.3649533 -1358.11298654 478.65298103 -1352.80761719 474.13037109 C-1350.5150605 472.17307789 -1348.22363405 470.21446635 -1345.93261719 468.25537109 C-1345.32369629 467.73531494 -1344.71477539 467.21525879 -1344.08740234 466.67944336 C-1340.55042355 463.65079275 -1337.06326756 460.57849927 -1333.62011719 457.44287109 C-1329.43392418 453.64529861 -1325.10742705 450.05971166 -1320.71386719 446.50537109 C-1317.60368559 443.96371732 -1314.54872878 441.36428643 -1311.49511719 438.75537109 C-1305.9145007 434.00335394 -1300.19475864 429.45454597 -1294.41308594 424.95068359 C-1290.6612189 422.02584652 -1286.95279946 419.04837966 -1283.24511719 416.06787109 C-1277.14355578 411.17433172 -1270.98233523 406.36487997 -1264.76171875 401.62353516 C-1262.47840979 399.87881782 -1260.20180138 398.12550542 -1257.92480469 396.37255859 C-1248.41240395 389.06605911 -1238.82651134 381.91994277 -1228.98730469 375.06005859 C-1223.85644869 371.48033525 -1218.79876658 367.80014517 -1213.74829102 364.1081543 C-1200.49079674 354.47110402 -1186.82043975 345.4037548 -1173.18261719 336.31787109 C-1172.39869598 335.7953476 -1171.61477478 335.2728241 -1170.80709839 334.73446655 C-1158.2435898 326.36543941 -1145.61349791 318.12513235 -1132.80761719 310.13037109 C-1131.97939453 309.61039551 -1131.15117188 309.09041992 -1130.29785156 308.5546875 C-1090.97452415 283.87543987 -1050.59599832 260.73567747 -1009.33935547 239.44482422 C-1007.02792125 238.24475075 -1004.72604977 237.0290366 -1002.42871094 235.80224609 C-977.83559378 222.67375834 -952.80224115 210.34859571 -927.43554688 198.79052734 C-924.25921491 197.33702416 -921.08988964 195.86991747 -917.92338562 194.3952179 C-849.59423232 162.58174806 -779.06481029 135.86010402 -707.58581543 112.05621338 C-705.00037268 111.1946074 -702.41603256 110.3297846 -699.83203125 109.46386719 C-656.35618959 94.91750833 -612.22028192 82.46597279 -567.80761719 71.13037109 C-566.75721252 70.86202454 -565.70680786 70.59367798 -564.62457275 70.31719971 C-451.41574954 41.45422947 -336.05440645 22.12394721 -80.50128174 1.23779297 C-78.64898112 1.16392423 -76.79688937 1.08468458 -74.94500732 1.00097656 C-49.97276369 -0.12681182 -24.99245673 -0.02314837 0 0 Z M-20.199646 163.14929199 C-119.92919869 163.73456588 -219.93577939 172.46298636 -648.32092285 264.31970215 C-650.83070437 265.13789758 -653.34193432 265.95150782 -655.85351562 266.76416016 C-744.37228343 295.44533231 -829.99669468 331.77910443 -948.03808594 391.60888672 C-952.12648976 393.85491392 -956.2463726 396.04092237 -960.36328125 398.23413086 C-972.90046055 404.92413055 -985.23292184 411.90233406 -997.45654297 419.14794922 C-1000.49627745 420.94618935 -1003.54141469 422.73474016 -1006.58874512 424.52005005 C-1022.47599011 433.83272664 -1038.09206511 443.4054307 -1053.44433594 453.58300781 C-1056.69127865 455.70895026 -1059.99581735 457.73273726 -1063.30761719 459.75537109 C-1089.51896572 475.89221773 -1114.73466555 494.02229489 -1139.42675781 512.3671875 C-1141.85481217 514.16532209 -1144.29081887 515.95213827 -1146.72949219 517.73583984 C-1159.72631665 527.24763392 -1172.36957101 537.10665532 -1184.84301758 547.29248047 C-1189.1639783 550.81570126 -1193.53059037 554.27175763 -1197.93261719 557.69287109 C-1204.4783732 562.79563592 -1210.77373309 568.16094043 -1217.04003906 573.60107422 C-1218.83622065 575.15511862 -1220.64067521 576.6989644 -1222.44824219 578.23974609 C-1228.56871595 583.45738819 -1234.63232526 588.72109644 -1240.58886719 594.12646484 C-1242.60070112 595.94349091 -1244.63422152 597.72981502 -1246.68261719 599.50537109 C-1250.59635132 602.91410728 -1254.41842079 606.42018928 -1258.23583984 609.93579102 C-1261.4844419 612.92571378 -1264.76070489 615.88108306 -1268.05761719 618.81787109 C-1271.71556812 622.09600284 -1275.21833554 625.47789012 -1278.62792969 629.01318359 C-1280.50396443 630.83542522 -1282.42082396 632.52997453 -1284.40454102 634.23168945 C-1288.93343444 638.18493995 -1293.19275893 642.37118634 -1297.43652344 646.62646484 C-1298.2298558 647.41884048 -1299.02318817 648.21121613 -1299.84056091 649.02760315 C-1301.506508 650.69287392 -1303.17120975 652.35939138 -1304.8347168 654.02709961 C-1307.36297853 656.56071731 -1309.89653379 659.08895277 -1312.43066406 661.61669922 C-1314.05793789 663.24463392 -1315.68490144 664.87287884 -1317.31152344 666.50146484 C-1318.43368004 667.6205851 -1318.43368004 667.6205851 -1319.57850647 668.76231384 C-1323.6672961 672.86914408 -1327.58828934 677.06465532 -1331.36143494 681.46400452 C-1333.08673664 683.45198708 -1334.91440715 685.30244416 -1336.80761719 687.13037109 C-1339.93515772 690.21621108 -1342.84143976 693.41161409 -1345.70214844 696.74365234 C-1347.91361916 699.25053289 -1350.18755588 701.68799036 -1352.47558594 704.12475586 C-1357.75713259 709.74999583 -1362.80542721 715.45944649 -1367.63183594 721.48583984 C-1369.93793419 724.28876357 -1372.34913249 726.96040385 -1374.80761719 729.63037109 C-1379.22643638 734.44227543 -1383.3799548 739.41306742 -1387.47949219 744.49755859 C-1388.98193457 746.34467893 -1390.50278582 748.17564954 -1392.02636719 750.00537109 C-1399.06226135 758.46444374 -1405.88498419 767.04606261 -1412.52636719 775.81787109 C-1415.32601651 779.51260061 -1418.17549518 783.16569334 -1421.03808594 786.81176758 C-1428.55960938 796.40150242 -1435.75939234 806.18873097 -1442.80761719 816.13037109 C-1443.61851807 817.26949951 -1443.61851807 817.26949951 -1444.44580078 818.43164062 C-1472.65950899 858.11731399 -1498.45141416 899.40723382 -1521.80761719 942.13037109 C-1522.40493652 943.2220459 -1523.00225586 944.3137207 -1523.61767578 945.43847656 C-1539.40941532 974.39484102 -1553.75414373 1003.81246026 -1566.90527344 1034.06005859 C-1567.75511505 1036.00991165 -1568.61004102 1037.9574158 -1569.46777344 1039.90380859 C-1605.92523945 1122.6869269 -1631.24635262 1210.34166478 -1661.55761719 1422.13037109 C-1661.61678314 1422.98105164 -1661.6759491 1423.83173218 -1661.73690796 1424.70819092 C-1662.07720236 1429.68529254 -1662.38633858 1434.6634606 -1662.66687012 1439.64428711 C-1662.75883316 1441.268675 -1662.85414763 1442.89287756 -1662.95324707 1444.5168457 C-1664.25275088 1466.18988888 -1664.05336588 1487.92727131 -1664.05761719 1509.63037109 C-1664.05805904 1510.66386311 -1664.0585009 1511.69735512 -1664.05895615 1512.76216507 C-1664.06646801 1546.31733711 -1663.50571747 1579.66716451 -1660.80761719 1613.13037109 C-1660.72276062 1614.21193481 -1660.63790405 1615.29349854 -1660.55047607 1616.40783691 C-1653.56879113 1705.33962227 -1637.93905825 1792.53707404 -1616.80761719 1879.13037109 C-1612.2310615 1875.29951738 -1607.87051705 1871.33819758 -1603.66003418 1867.10977173 C-1602.79479984 1866.24687737 -1602.79479984 1866.24687737 -1601.91208601 1865.3665508 C-1599.99924098 1863.45766235 -1598.08995214 1861.54525814 -1596.18066406 1859.6328125 C-1594.80205096 1858.25555582 -1593.42322551 1856.87851167 -1592.04420471 1855.50166321 C-1588.31259087 1851.77459537 -1584.58413181 1848.04438662 -1580.85637856 1844.31345797 C-1576.94672752 1840.40126818 -1573.03462922 1836.49152683 -1569.1229248 1832.58139038 C-1562.55427104 1826.01455411 -1555.98772426 1819.44561648 -1549.42236328 1812.87548828 C-1541.84378544 1805.2914709 -1534.26161504 1797.71105954 -1526.67756414 1790.13251555 C-1520.15492649 1783.61442371 -1513.63424946 1777.09437528 -1507.11519098 1770.57270372 C-1503.22662506 1766.68258282 -1499.33739631 1762.79313107 -1495.44639587 1758.9054451 C-1491.78663531 1755.24858451 -1488.12935131 1751.5892646 -1484.47392082 1747.92807579 C-1483.13607624 1746.58891489 -1481.797391 1745.2505932 -1480.45778084 1743.91319847 C-1471.55935806 1735.06582592 -1471.55935806 1735.06582592 -1463.183424 1725.7283659 C-1460.6530598 1722.78935672 -1457.86488354 1720.1047555 -1455.09667969 1717.39208984 C-1453.83872817 1716.14678755 -1452.58092016 1714.90134028 -1451.32324219 1713.65576172 C-1449.38155289 1711.73875905 -1447.4382726 1709.82342903 -1445.4921875 1707.91088867 C-1436.46335165 1699.0675611 -1436.46335165 1699.0675611 -1428.26855469 1689.46240234 C-1425.19303322 1685.57257969 -1421.9920041 1682.51077695 -1418.1415863 1679.39471436 C-1406.71092788 1669.83185814 -1396.39590138 1658.99435778 -1385.88141954 1648.45096374 C-1382.6574604 1645.22036121 -1379.42766852 1641.99559838 -1376.19863892 1638.77006531 C-1369.89210007 1632.46854102 -1363.59087113 1626.16173328 -1357.29148424 1619.85306033 C-1349.94705357 1612.49819599 -1342.59734828 1605.14861185 -1335.24745672 1597.79920539 C-1322.13277844 1584.68502655 -1309.02292097 1571.56603915 -1295.91577148 1558.44433594 C-1283.20976741 1545.72423097 -1270.50025282 1533.00764729 -1257.78686523 1520.29492188 C-1256.61098842 1519.11910499 -1256.61098842 1519.11910499 -1255.41135652 1517.91953424 C-1254.23746707 1516.74570533 -1254.23746707 1516.74570533 -1253.03986269 1515.5481627 C-1238.54076527 1501.04975559 -1224.04496084 1486.54806003 -1209.55068551 1472.0448323 C-1204.43345175 1466.92458713 -1199.31524647 1461.8053143 -1194.19673347 1456.68634796 C-1187.96042236 1450.44935377 -1181.72601261 1444.2104659 -1175.49394739 1437.96922907 C-1172.31657395 1434.78724909 -1169.13843271 1431.6060467 -1165.95812416 1428.42700005 C-1163.04420511 1425.51418113 -1160.13262419 1422.59904572 -1157.22285455 1419.68208191 C-1156.17287477 1418.63029862 -1155.122067 1417.57934108 -1154.07032514 1416.52931979 C-1149.05963032 1411.52591198 -1144.18068401 1406.48958052 -1139.56861013 1401.11692023 C-1135.99509278 1397.0856901 -1132.13501736 1393.3284031 -1128.31921387 1389.52844238 C-1127.37336659 1388.58287567 -1126.42774185 1387.63708631 -1125.4823184 1386.69109583 C-1122.90292473 1384.11140862 -1120.3204441 1381.53483176 -1117.73742652 1378.95877385 C-1114.94482042 1376.1725738 -1112.15514705 1373.38344004 -1109.36512756 1370.59465027 C-1104.5355201 1365.76792258 -1099.70414237 1360.94297285 -1094.87159729 1356.1191864 C-1087.87651725 1349.13669074 -1080.8847041 1342.15093102 -1073.89376611 1335.16428858 C-1062.53916943 1323.8167515 -1051.1827065 1312.47108424 -1039.82470703 1301.12695312 C-1039.14565093 1300.44872484 -1038.46659483 1299.77049655 -1037.76696128 1299.07171589 C-1032.25759418 1293.56909308 -1026.74813653 1288.06656093 -1021.23867512 1282.56403255 C-1016.42258352 1277.75399378 -1011.60652809 1272.9439188 -1006.79052734 1268.13378906 C-1006.11230224 1267.45639209 -1005.43407714 1266.77899511 -1004.73529977 1266.08107096 C-993.41844967 1254.77791657 -982.10357057 1243.47279111 -970.79009104 1232.1662631 C-963.81824554 1225.19889235 -956.84462937 1218.23330291 -949.86870205 1211.27001894 C-945.08837013 1206.49812641 -940.30981901 1201.72445553 -935.53265226 1196.94939435 C-932.77865968 1194.19674371 -930.02385069 1191.44492327 -927.26681709 1188.69531822 C-924.73935234 1186.1746376 -922.21424275 1183.65162168 -919.6909247 1181.12679023 C-918.35303298 1179.78929536 -917.01266812 1178.45427575 -915.67219496 1177.11936808 C-911.47211019 1172.91213323 -907.45308023 1168.62954755 -903.57571936 1164.12473917 C-900.20063686 1160.31774379 -896.56899557 1156.76202126 -892.96459961 1153.17382812 C-892.0978445 1152.30692415 -891.23108938 1151.44002018 -890.33806896 1150.54684639 C-887.95206601 1148.16141447 -885.56385304 1145.77823619 -883.17465734 1143.39600468 C-880.59063966 1140.81839814 -878.00955956 1138.23785294 -875.4281311 1135.65765381 C-870.96029976 1131.19270112 -866.49069884 1126.72952634 -862.01992798 1122.26751709 C-855.54791982 1115.80809866 -849.07918339 1109.34541155 -842.61132038 1102.88184285 C-832.10526737 1092.38284813 -821.59734816 1081.88572348 -811.08789062 1071.39013672 C-810.45967498 1070.76274888 -809.83145933 1070.13536105 -809.18420684 1069.48896146 C-804.08740544 1064.39890424 -798.99051342 1059.30893777 -793.89361763 1054.21897507 C-789.43815063 1049.76956096 -784.98271983 1045.32011061 -780.52734375 1040.87060547 C-779.89989757 1040.24398742 -779.2724514 1039.61736937 -778.6259917 1038.9717629 C-768.15438962 1028.51385912 -757.68476055 1018.05398227 -747.2165308 1007.59270287 C-740.76674675 1001.14739205 -734.31519329 994.70386217 -727.86132455 988.26264143 C-723.43841221 983.84817199 -719.01728387 979.43192119 -714.59753871 975.0142808 C-712.05012344 972.46820671 -709.50189442 969.9229613 -706.95143509 967.37993622 C-704.18177532 964.61831893 -701.41603891 961.85279314 -698.65063477 959.08691406 C-697.85091846 958.29079271 -697.05120214 957.49467136 -696.22725201 956.67442513 C-692.8206275 953.26154224 -689.49644583 949.82862791 -686.35032654 946.17308044 C-682.22169437 941.38366868 -677.7598883 936.95060521 -673.28125 932.49047852 C-672.33127792 931.540787 -671.38152837 930.59087285 -670.43198013 929.64075756 C-667.84118492 927.04966879 -665.24730255 924.46169046 -662.65288353 921.87423086 C-659.84800751 919.07576062 -657.04606397 916.27435693 -654.24377441 913.47329712 C-649.392886 908.62528854 -644.54022729 903.77905793 -639.68640137 898.93399048 C-632.66055238 891.92072558 -625.63797002 884.90419687 -618.61626291 877.88678539 C-607.2117519 866.48933404 -595.80537464 855.09375252 -584.39746094 843.69970703 C-583.37439087 842.67787868 -583.37439087 842.67787868 -582.33065271 841.63540733 C-576.79701705 836.10851595 -571.26329083 830.58171524 -565.72956085 825.05491829 C-560.89225604 820.2236663 -556.0549874 815.39237811 -551.21777344 810.56103516 C-550.53656134 809.88065119 -549.85534925 809.20026722 -549.15349436 808.49926555 C-537.78692378 797.14639054 -526.4223241 785.79154457 -515.05912399 774.43529606 C-508.056569 767.43721589 -501.05224327 760.44091706 -494.04560661 753.44692349 C-489.24425 748.65400609 -484.44467402 743.85931049 -479.64648247 739.06322455 C-476.88033829 736.29842235 -474.11337754 733.53445044 -471.3441925 730.77269363 C-468.80562542 728.2409103 -466.26941303 725.70679204 -463.7349925 723.17085803 C-462.39113587 721.82739829 -461.04480601 720.48641389 -459.69836807 719.14554119 C-456.14825187 715.58940736 -452.663597 712.02758824 -449.39066315 708.21341705 C-444.84725896 702.93575951 -439.88237391 698.07357077 -434.95251465 693.16174316 C-433.85817462 692.06768357 -432.76405688 690.9734016 -431.67014074 689.87891817 C-428.68029135 686.88877472 -425.68734903 683.90174428 -422.69387889 680.91522622 C-419.45955507 677.68729986 -416.22815581 674.45644812 -412.99641418 671.22593689 C-407.40069275 665.63309713 -401.80319989 660.04203542 -396.20454407 654.45213318 C-388.10178127 646.36194571 -380.00227717 638.268502 -371.90365118 630.17417365 C-358.75213873 617.02972302 -345.59875995 603.88714179 -332.44384766 590.74609375 C-331.65712943 589.96020333 -330.87041119 589.17431291 -330.05985302 588.36460763 C-323.67681742 581.98831647 -317.29369137 575.61211585 -310.91056156 569.235919 C-305.33079432 563.66220448 -299.75106321 558.0884538 -294.17138672 552.51464844 C-293.38562978 551.72971962 -292.59987284 550.94479081 -291.79030508 550.13607627 C-278.68351746 537.04297997 -265.57869746 523.947916 -252.47527742 510.85144949 C-244.39789025 502.77853962 -236.31873031 494.7074117 -228.23726618 486.63858306 C-222.700045 481.10979534 -217.16459919 475.57923435 -211.63053977 470.04728186 C-208.43908942 466.85717473 -205.24681817 463.66790037 -202.05233192 460.48083305 C-199.1251821 457.56045554 -196.20037303 454.63775439 -193.27736551 451.71323103 C-192.22248236 450.65861821 -191.1667553 449.60484866 -190.11007661 448.55203491 C-185.07398148 443.53349891 -180.15684277 438.47230517 -175.52536058 433.0743804 C-172.18431446 429.29324244 -168.5772104 425.77029125 -165.00256348 422.21179199 C-164.13989192 421.34897157 -163.27722035 420.48615115 -162.38840723 419.59718466 C-160.01380582 417.22315425 -157.63699462 414.85137748 -155.25920033 412.48054767 C-152.68745254 409.91521135 -150.11864265 407.34693606 -147.54948425 404.77900696 C-143.10293386 400.33533514 -138.65461394 395.89344124 -134.2051239 391.45271301 C-127.76388466 385.02406384 -121.32591747 378.5921457 -114.88882357 372.15934604 C-104.4326849 361.71026557 -93.97468002 351.26305519 -83.51513672 340.81738281 C-82.57729917 339.88078698 -82.57729917 339.88078698 -81.62051541 338.92527002 C-76.54798257 333.85948137 -71.47535912 328.79378347 -66.4027319 323.72808933 C-61.96847811 319.29988844 -57.53426052 314.87165131 -53.10009766 310.44335938 C-52.16340889 309.50791279 -52.16340889 309.50791279 -51.20779711 308.5535683 C-40.7859155 298.14538516 -30.36600702 287.73522881 -19.94749784 277.32366991 C-13.52842329 270.9090685 -7.10757942 264.496248 -0.68441999 258.08573687 C3.71746768 253.69229233 8.11757114 249.29706623 12.5162915 244.90045059 C15.05155516 242.36652806 17.58763241 239.83343411 20.12594032 237.30256081 C22.8824632 234.55408097 25.63506211 231.80169211 28.3873291 229.0489502 C29.58106714 227.86060459 29.58106714 227.86060459 30.79892111 226.64825201 C34.9353864 222.50415199 38.90817326 218.27856939 42.71793944 213.83131695 C44.7815517 211.45069469 46.97942959 209.22362084 49.2097168 206.99951172 C50.59035561 205.61898621 50.59035561 205.61898621 51.99888611 204.21057129 C52.97869486 203.2358662 53.9585596 202.2612174 54.93847656 201.28662109 C55.96002328 200.26694401 56.98134607 199.24704254 58.00245667 198.22692871 C60.66504718 195.56812048 63.3306288 192.91233151 65.99688721 190.25720215 C68.72730953 187.53708716 71.45483355 184.81406924 74.18261719 182.09130859 C79.51640481 176.76818247 84.85336197 171.44824891 90.19238281 166.13037109 C86.51117363 163.67623164 83.65094318 163.781541 79.38378906 163.71630859 C78.57586914 163.69685181 77.76794922 163.67739502 76.93554688 163.65734863 C74.20876695 163.59573155 71.48199376 163.54981529 68.75488281 163.50537109 C66.79842093 163.46778848 64.84195935 163.43019042 62.88549805 163.39257812 C35.1919291 162.89907602 7.4964208 162.99480201 -20.199646 163.14929199 Z M206.19238281 282.13037109 C185.54339349 302.75652697 164.89697762 323.38525585 144.25413006 344.01755852 C141.81470277 346.45573516 139.37525364 348.89388996 136.93579102 351.33203125 C136.20733996 352.06008884 136.20733996 352.06008884 135.46417273 352.80285466 C127.61023571 360.6524454 119.75453277 368.50026653 111.89817088 376.34743023 C103.83137839 384.40485718 95.76653586 392.4642311 87.70337397 400.52529144 C83.17667936 405.05068354 78.64911176 409.57519431 74.11942863 414.09759521 C69.85330305 418.35691802 65.58954699 422.61859863 61.32757187 426.88207436 C59.76559778 428.44377403 58.20277079 430.00462122 56.63901329 431.56453514 C54.49776628 433.70077836 52.35966083 435.84011933 50.22227478 437.98022461 C49.6084401 438.59114645 48.99460542 439.20206829 48.36216968 439.83150291 C45.39769909 442.80611979 42.55031981 445.83265668 39.80864716 449.01452732 C35.84368895 453.59614608 31.59468756 457.86077294 27.30226135 462.13401794 C26.43056728 463.00586088 25.5588732 463.87770381 24.66076416 464.77596623 C22.26124695 467.1749124 19.85951965 469.5716051 17.45680964 471.96735084 C14.85861114 474.55913893 12.26334956 477.153865 9.66773987 479.74824524 C5.1769755 484.23613153 0.684442 488.7222404 -3.80926323 493.20718193 C-10.30680526 499.6921449 -16.80108482 506.1803673 -23.29448844 512.66947377 C-33.83185619 523.19978512 -44.37109168 533.72822485 -54.91186523 544.25512695 C-55.85694297 545.19896297 -55.85694297 545.19896297 -56.82111318 546.16186637 C-61.29573295 550.63058291 -65.77041904 555.09923303 -70.24511719 559.56787109 C-75.36878271 564.68460264 -80.49241362 569.80136884 -85.6159668 574.91821289 C-86.24737079 575.54878876 -86.87877479 576.17936463 -87.52931225 576.82904886 C-98.04041406 587.32648618 -108.54956827 597.82587116 -119.05732304 608.32665879 C-125.53938017 614.80422697 -132.0232151 621.28000601 -138.50932509 627.75351603 C-142.94524615 632.18103969 -147.37942344 636.61030448 -151.81220531 641.04097103 C-154.37293477 643.60034993 -156.93450372 646.15887465 -159.49823761 648.71524429 C-162.27029057 651.47936405 -165.03853118 654.24728104 -167.80638123 657.01560974 C-168.62648743 657.83212098 -169.44659363 658.64863222 -170.29155153 659.48988622 C-171.39279599 660.5931922 -171.39279599 660.5931922 -172.5162878 661.71878719 C-173.47660456 662.67772126 -173.47660456 662.67772126 -174.45632166 663.65602773 C-175.92022954 664.9199175 -175.92022954 664.9199175 -175.80761719 666.13037109 C-147.68643053 666.47121501 -119.61373742 665.53653829 -91.51073503 664.61373305 C-85.50932725 664.41763483 -79.50776683 664.22635706 -73.50621037 664.03487746 C-61.55022494 663.65324155 -49.59440306 663.26671039 -37.63867188 662.87719727 C-26.2575906 662.50641265 -14.87641751 662.13865873 -3.49511719 661.7746582 C-2.45286833 661.74131999 -2.45286833 661.74131999 -1.38956395 661.70730828 C1.410531 661.61774405 4.21062607 661.52818386 7.01072137 661.43863075 C68.40962058 659.47454832 129.80510127 657.43261893 191.19238281 655.13037109 C192.36286917 650.11670992 193.42440765 645.17524875 193.98266602 640.04980469 C194.16872154 638.3700631 194.16872154 638.3700631 194.35853577 636.65638733 C194.4854631 635.45928635 194.61239044 634.26218536 194.74316406 633.02880859 C194.88221664 631.74836166 195.02126923 630.46791473 195.16453552 629.14866638 C195.62023645 624.93516307 196.06296525 620.72033843 196.50488281 616.50537109 C196.66009371 615.03371962 196.81532663 613.56207047 196.97058105 612.09042358 C201.3086276 570.84972811 204.63141134 529.53626484 206.94238281 488.13037109 C207.0016394 487.08708649 207.060896 486.04380188 207.12194824 484.96890259 C209.11027573 449.37024775 209.35926316 413.74945046 209.32275391 378.10449219 C209.31704337 372.49276378 209.32046996 366.88108261 209.32617569 361.26935577 C209.34343938 341.48057206 209.34977519 321.68909101 208.86544418 301.90505219 C208.82863088 300.39605112 208.79463865 298.8869782 208.76367569 297.37784576 C208.72003707 295.34426241 208.66149185 293.31101484 208.60205078 291.27783203 C208.57142548 290.15342712 208.54080017 289.02902222 208.50924683 287.87054443 C208.37837114 284.91594959 208.37837114 284.91594959 206.19238281 282.13037109 Z M155.19778442 819.30856323 C154.07118524 819.33791688 154.07118524 819.33791688 152.92182648 819.36786354 C89.66876779 821.02235006 26.42627125 822.97568441 -36.81542969 825.01318359 C-37.82188644 825.04560886 -38.82834319 825.07803412 -39.86529863 825.11144197 C-64.78652465 825.9145149 -89.70760209 826.72215533 -114.62862369 827.53154394 C-130.70011983 828.05350198 -146.77166899 828.57379826 -162.84326172 829.09277344 C-164.44539332 829.144509 -164.44539332 829.144509 -166.07989122 829.19728972 C-168.23285004 829.26681141 -170.38580886 829.33633299 -172.53876769 829.40585446 C-173.60163721 829.44017598 -174.66450674 829.47449751 -175.75958443 829.50985909 C-177.35082684 829.56124174 -177.35082684 829.56124174 -178.97421557 829.61366243 C-195.56375247 830.14940663 -212.15324963 830.68637946 -228.74274103 831.22353033 C-234.67778767 831.41569193 -240.61283918 831.60770246 -246.54789425 831.79960336 C-255.90500929 832.10216423 -265.26210619 832.40527509 -274.61916901 832.7094468 C-278.87213802 832.8476917 -283.1251139 832.98571268 -287.37811279 833.12303543 C-288.5727201 833.1616712 -288.5727201 833.1616712 -289.79146089 833.20108749 C-291.36164528 833.25180067 -292.93183598 833.30231886 -294.50203322 833.35263287 C-298.20679428 833.47195835 -301.91126423 833.5959798 -305.61546731 833.73159242 C-312.24186191 833.9712597 -318.8587877 834.15397578 -325.49056625 834.17879868 C-326.68369804 834.19409241 -327.87682983 834.20938614 -329.10611713 834.22514331 C-331.29186856 834.25120431 -333.47816968 834.25157505 -335.66383469 834.21906388 C-342.21636495 834.3313174 -345.54225616 835.70897402 -350.18837464 840.37605202 C-350.72272468 840.95497732 -351.25707472 841.53390261 -351.80761719 842.13037109 C-352.70681885 842.98687256 -353.60602051 843.84337402 -354.5324707 844.72583008 C-355.72247681 845.91414429 -355.72247681 845.91414429 -356.93652344 847.12646484 C-357.82662109 848.01527344 -358.71671875 848.90408203 -359.63378906 849.81982422 C-360.53677734 850.72667969 -361.43976563 851.63353516 -362.37011719 852.56787109 C-363.27697266 853.47085938 -364.18382812 854.37384766 -365.11816406 855.30419922 C-366.45137695 856.6393457 -366.45137695 856.6393457 -367.81152344 858.00146484 C-368.60373291 858.79480225 -369.39594238 859.58813965 -370.2121582 860.40551758 C-372.14089928 862.4304145 -373.95554657 864.46376902 -375.76528931 866.58903503 C-380.61759568 872.14523255 -385.85810603 877.31270636 -391.08032227 882.51660156 C-392.22003508 883.65603397 -393.35952567 884.7956887 -394.49881458 885.93554497 C-397.61408105 889.05110563 -400.73244195 892.16355259 -403.85132837 895.27548885 C-407.22062172 898.63838691 -410.58699257 902.00420824 -413.95370483 905.36968994 C-419.78351662 911.19661956 -425.61510011 917.02177111 -431.44784546 922.84576416 C-439.88906711 931.27441277 -448.32703213 939.70631566 -456.76411831 948.13910365 C-470.46468831 961.83261127 -484.16712465 975.52424959 -497.87109375 989.21435547 C-498.69070874 990.03314265 -499.51032374 990.85192983 -500.35477555 991.69552875 C-507.00476541 998.33877413 -513.65484569 1004.981929 -520.30492973 1011.62508011 C-526.11804231 1017.43213999 -531.93111877 1023.23923602 -537.74414062 1029.04638672 C-538.56275452 1029.86417248 -539.38136841 1030.68195825 -540.22478878 1031.5245254 C-553.87850187 1045.16454828 -567.53024819 1058.80653796 -581.18059444 1072.44993019 C-589.59578597 1080.86064377 -598.0127508 1089.26957523 -606.43201804 1097.67620897 C-612.2005111 1103.43627007 -617.96723015 1109.19810315 -623.7325623 1114.96132803 C-627.0576803 1118.28510248 -630.38362033 1121.60804351 -633.71177292 1124.9287796 C-636.76104907 1127.97128643 -639.8079881 1131.01611394 -642.85312307 1134.06276536 C-643.95242051 1135.16179233 -645.05256271 1136.25997516 -646.15365469 1137.3572042 C-651.4270653 1142.6129782 -656.62756961 1147.88807895 -661.46070868 1153.55761725 C-663.1593919 1155.54113027 -664.96103136 1157.39745839 -666.81518555 1159.2355957 C-667.51538315 1159.93249008 -668.21558075 1160.62938446 -668.93699646 1161.34739685 C-670.03117638 1162.42912926 -670.03117638 1162.42912926 -671.14746094 1163.53271484 C-671.91441788 1164.29588516 -672.68137482 1165.05905548 -673.47157288 1165.84535217 C-675.89365344 1168.25532288 -678.31897539 1170.66198936 -680.74511719 1173.06787109 C-683.96539056 1176.26165833 -687.1824072 1179.4586743 -690.39746094 1182.65771484 C-691.14108383 1183.3930394 -691.88470673 1184.12836395 -692.65086365 1184.88597107 C-693.32899612 1185.56080032 -694.0071286 1186.23562958 -694.70581055 1186.9309082 C-695.30646835 1187.52632919 -695.90712616 1188.12175018 -696.52598572 1188.73521423 C-697.92036877 1189.93736396 -697.92036877 1189.93736396 -697.80761719 1191.13037109 C-671.54243282 1191.39936534 -645.29027388 1190.70558549 -619.03356873 1190.12024916 C-612.06419298 1189.96502005 -605.0947359 1189.81358496 -598.12527544 1189.6622155 C-585.23753546 1189.38220087 -572.34986182 1189.09923806 -559.46222496 1188.81451988 C-546.63885159 1188.53122625 -533.8154513 1188.24920315 -520.99201393 1187.96882057 C-520.18770701 1187.95123344 -519.38340009 1187.9336463 -518.55472024 1187.91552623 C-515.2870935 1187.84407964 -512.01946656 1187.7726421 -508.75183937 1187.70121643 C-478.9810665 1187.0504673 -449.21036124 1186.39667706 -419.43969727 1185.7409668 C-391.65393281 1185.12897654 -363.86812933 1184.51880289 -336.08227539 1183.91088867 C-335.23335849 1183.89231513 -334.38444158 1183.8737416 -333.50979993 1183.85460523 C-330.08569932 1183.77968917 -326.66159868 1183.70477465 -323.23749803 1183.6298604 C-321.52914449 1183.59248416 -319.82079094 1183.55510776 -318.11243741 1183.5177312 C-316.40694673 1183.48041741 -314.70145604 1183.44310418 -312.99596533 1183.40579152 C-285.31985434 1182.80028061 -257.64377867 1182.19315831 -229.96770906 1181.58575892 C-221.97142041 1181.41027197 -213.9751302 1181.23485667 -205.97883582 1181.05963111 C-184.81846046 1180.59592805 -163.65810583 1180.13129682 -142.49780273 1179.66430664 C-141.77873908 1179.64843905 -141.05967542 1179.63257145 -140.31882195 1179.61622302 C-75.48024655 1178.18518973 -10.64368791 1176.67039356 54.19238281 1175.13037109 C54.82733735 1173.87615291 55.46045404 1172.62100422 56.09281921 1171.36547852 C56.44558772 1170.66662033 56.79835623 1169.96776215 57.16181469 1169.24772644 C58.72137275 1166.04353399 60.03703981 1162.75906708 61.33691406 1159.44287109 C61.62322693 1158.7202005 61.90953979 1157.99752991 62.20452881 1157.25296021 C63.14244283 1154.88049508 64.07419902 1152.50568115 65.00488281 1150.13037109 C65.49334183 1148.8875235 65.49334183 1148.8875235 65.9916687 1147.61956787 C95.98256102 1071.26870494 121.72229997 993.58216729 142.19238281 914.13037109 C142.42785828 913.21898376 142.66333374 912.30759644 142.90594482 911.36859131 C148.57635445 889.40906569 153.91692435 867.38587206 158.87988281 845.25537109 C159.10065491 844.27858398 159.321427 843.30179688 159.54888916 842.29541016 C160.17046409 839.53623817 160.78273134 836.77518353 161.39160156 834.01318359 C161.57537857 833.19963409 161.75915558 832.38608459 161.94850159 831.54788208 C162.86556772 827.32650916 163.39266718 823.48101687 163.19238281 819.13037109 C160.52779183 819.13037109 157.8615017 819.23901891 155.19778442 819.30856323 Z M-47.69769001 1340.35307121 C-48.97592282 1340.37707605 -50.25415562 1340.40108088 -51.57112275 1340.42581313 C-55.09697707 1340.49209726 -58.62280918 1340.5595008 -62.14863733 1340.6271611 C-65.17031444 1340.68503949 -68.19200226 1340.74234858 -71.21368967 1340.79968641 C-81.17331193 1340.98874914 -91.1328862 1341.1802758 -101.09245096 1341.37233998 C-103.71725529 1341.42293098 -106.34206129 1341.47343481 -108.96686782 1341.5239118 C-182.70250215 1342.94214801 -256.43467713 1344.50286644 -330.16621007 1346.11882956 C-342.18557057 1346.38223138 -354.20495121 1346.6446998 -366.22434425 1346.9066124 C-367.53612745 1346.93519866 -367.53612745 1346.93519866 -368.87441132 1346.96436243 C-372.42885508 1347.04181918 -375.98329892 1347.11927185 -379.53774289 1347.19671865 C-412.29745715 1347.91051987 -445.05712344 1348.62649909 -477.81676446 1349.34365276 C-506.74295948 1349.97687487 -535.66919271 1350.60832295 -564.59545898 1351.23828125 C-572.08389391 1351.40136686 -579.5723288 1351.56445373 -587.06076336 1351.72755623 C-588.44496383 1351.75770479 -588.44496383 1351.75770479 -589.85712795 1351.78846241 C-614.34747822 1352.32189896 -638.83779962 1352.85665687 -663.32811195 1353.39183223 C-665.96161896 1353.44937989 -668.59512597 1353.50692731 -671.228633 1353.56447423 C-672.97411823 1353.60261655 -674.71960344 1353.64075991 -676.46508863 1353.6789043 C-688.52513092 1353.94244389 -700.58518414 1354.20547827 -712.6452454 1354.46814847 C-728.10590088 1354.80488493 -743.5665358 1355.14254186 -759.02713647 1355.48178639 C-766.45084557 1355.64465752 -773.87456356 1355.80709225 -781.29830933 1355.96828461 C-783.40659816 1356.01412016 -785.51488663 1356.05997216 -787.62317486 1356.10583543 C-788.99598957 1356.13567724 -790.36880524 1356.16547493 -791.74162189 1356.19522717 C-798.80772368 1356.34845759 -805.87368052 1356.50570391 -812.93939245 1356.67603612 C-815.28866704 1356.73252258 -817.63794249 1356.78897373 -819.98721886 1356.84538651 C-821.10146955 1356.87225975 -822.21572025 1356.899133 -823.36373612 1356.92682059 C-829.25279551 1357.06412817 -835.14012733 1357.16670629 -841.03060463 1357.21369985 C-844.1640504 1357.24021722 -847.29706138 1357.28537355 -850.43023912 1357.33359288 C-852.40825588 1357.3559389 -854.38653882 1357.34915931 -856.36466378 1357.34071553 C-863.93371737 1357.47048997 -868.9313073 1358.80590411 -874.69042969 1363.85302734 C-876.93296486 1366.19144498 -878.93333983 1368.64609427 -880.93261719 1371.19287109 C-882.0155308 1372.42864939 -883.10672918 1373.65721638 -884.20605469 1374.87841797 C-886.2108279 1377.13275591 -888.16255337 1379.41268205 -890.05810547 1381.75952148 C-896.08240427 1389.19843863 -902.59176009 1396.0559392 -909.37194824 1402.80822754 C-910.32604512 1403.76204385 -911.27991947 1404.7160828 -912.23359251 1405.6703229 C-914.83578927 1408.27281322 -917.44107337 1410.87219304 -920.04689384 1413.47105432 C-922.86403978 1416.28179475 -925.6782535 1419.09546837 -928.49281311 1421.90879822 C-933.36498247 1426.77808768 -938.23892216 1431.64559917 -943.11402893 1436.51194763 C-950.17064686 1443.55598177 -957.22399843 1450.60327946 -964.27647465 1457.65145999 C-975.73089999 1469.0988256 -987.18719159 1480.5443214 -998.64501953 1491.98828125 C-999.67257552 1493.01459552 -999.67257552 1493.01459552 -1000.72089022 1494.06164342 C-1006.27879446 1499.61280337 -1011.83678924 1505.16387265 -1017.39478779 1510.71493816 C-1022.25330581 1515.56740337 -1027.11178767 1520.41990478 -1031.97021484 1525.27246094 C-1032.65441394 1525.9558319 -1033.33861303 1526.63920287 -1034.04354542 1527.34328204 C-1045.45983648 1538.74587767 -1056.87415674 1550.15044415 -1068.28707743 1561.55641317 C-1075.32034192 1568.58520276 -1082.35537721 1575.61221098 -1089.3927232 1582.63691413 C-1094.2151045 1587.45085642 -1099.03570535 1592.26657673 -1103.8549217 1597.08368742 C-1106.63321749 1599.86064119 -1109.41232998 1602.63676459 -1112.19366646 1605.41067314 C-1114.74333588 1607.95355919 -1117.29065107 1610.4987798 -1119.83617407 1613.04581636 C-1121.18599561 1614.39524097 -1122.53829046 1615.74219016 -1123.89069319 1617.08902788 C-1128.20127803 1621.40688813 -1132.3663281 1625.78658959 -1136.32882357 1630.42728186 C-1138.60707854 1633.05109053 -1141.04959835 1635.46580334 -1143.52246094 1637.90771484 C-1144.02306534 1638.40453262 -1144.52366974 1638.9013504 -1145.03944397 1639.41322327 C-1146.6055297 1640.96729319 -1148.17488865 1642.51798795 -1149.74511719 1644.06787109 C-1151.84040622 1646.13664148 -1153.93239332 1648.20867107 -1156.02246094 1650.28271484 C-1156.94148193 1651.19013428 -1157.86050293 1652.09755371 -1158.80737305 1653.0324707 C-1160.92262735 1654.76788823 -1160.92262735 1654.76788823 -1160.80761719 1656.13037109 C-1113.07397949 1656.51751075 -1065.36210776 1655.50731879 -1017.63932371 1654.60996725 C-1005.34636353 1654.37906108 -993.05329088 1654.15440333 -980.76021326 1653.92985209 C-949.34758787 1653.35577758 -917.93516893 1652.77078576 -886.52277981 1652.18396255 C-878.93442988 1652.04220732 -871.34607737 1651.90059114 -863.75772476 1651.7589798 C-860.99435624 1651.70740931 -858.23098774 1651.655838 -855.46761924 1651.60426641 C-854.44071365 1651.58510185 -854.44071365 1651.58510185 -853.3930625 1651.56555014 C-848.54171185 1651.47501055 -843.69036153 1651.38445272 -838.83901137 1651.2938869 C-824.8945312 1651.0335728 -810.9500493 1650.77335206 -797.00556278 1650.51337814 C-795.96608259 1650.49399851 -795.96608259 1650.49399851 -794.9056028 1650.47422738 C-787.19593798 1650.3304958 -779.48627228 1650.186812 -771.77660543 1650.04318929 C-768.96939898 1649.99089176 -766.16219258 1649.93859219 -763.35498619 1649.8862915 C-762.65988112 1649.87334158 -761.96477605 1649.86039166 -761.24860718 1649.84704932 C-751.38567159 1649.663289 -741.5227442 1649.47909325 -731.65982177 1649.29462823 C-660.70745633 1647.96771877 -589.75451369 1646.70627048 -518.79903233 1645.5550676 C-503.0940843 1645.3000197 -487.38924846 1645.03878984 -471.68447876 1644.772995 C-470.60570604 1644.75475088 -469.52693333 1644.73650677 -468.41547053 1644.7177098 C-458.80200159 1644.55509026 -449.18853847 1644.39213168 -439.57509494 1644.22801673 C-416.09001849 1643.82711471 -392.60486938 1643.44136957 -369.11896189 1643.09225536 C-353.0004075 1642.85225941 -336.88238887 1642.58854599 -320.76463491 1642.29966778 C-311.31886192 1642.13118399 -301.87324884 1641.98199034 -292.42674417 1641.86109841 C-286.18094776 1641.77936176 -279.93588831 1641.67310963 -273.69084131 1641.54648095 C-270.14747091 1641.47535669 -266.60483741 1641.41512046 -263.06085873 1641.3852433 C-259.25641511 1641.35295388 -255.45420933 1641.26781992 -251.65068054 1641.17733765 C-250.55512492 1641.17663125 -249.4595693 1641.17592486 -248.33081502 1641.17519706 C-241.65880224 1640.95972101 -238.13815859 1639.65813117 -233.40027744 1634.88879073 C-232.87469955 1634.30851225 -232.34912167 1633.72823377 -231.80761719 1633.13037109 C-230.49470703 1631.79232422 -230.49470703 1631.79232422 -229.15527344 1630.42724609 C-224.309996 1625.02703945 -219.64439985 1619.5266651 -215.08886719 1613.88037109 C-212.7404275 1611.04937531 -210.29851816 1608.33653512 -207.80761719 1605.63037109 C-203.75222775 1601.21880724 -199.92287979 1596.67849227 -196.15917969 1592.01708984 C-193.56313494 1588.83025086 -190.90999585 1585.69708122 -188.24511719 1582.56787109 C-183.65988817 1577.17001003 -179.19017915 1571.69474751 -174.80761719 1566.13037109 C-174.39543945 1565.60862305 -173.98326172 1565.086875 -173.55859375 1564.54931641 C-159.33933261 1546.54933134 -145.4619742 1528.31013683 -132.08105469 1509.67724609 C-129.95556529 1506.71795937 -127.81549819 1503.77038845 -125.65917969 1500.83349609 C-117.41198315 1489.57349078 -109.6514058 1478.02253727 -101.95947266 1466.37792969 C-99.7438684 1463.03416207 -97.51468331 1459.69986239 -95.28027344 1456.36865234 C-74.25201048 1425.00470056 -54.45272514 1392.96623587 -35.80761719 1360.13037109 C-35.27394531 1359.19225586 -34.74027344 1358.25414062 -34.19042969 1357.28759766 C-32.74390404 1354.7387387 -31.30482916 1352.18589476 -29.87011719 1349.63037109 C-29.45060791 1348.88835449 -29.03109863 1348.14633789 -28.59887695 1347.38183594 C-26.52158848 1343.9639319 -26.52158848 1343.9639319 -25.80761719 1340.13037109 C-33.10719603 1340.1028695 -40.3995744 1340.21225998 -47.69769001 1340.35307121 Z M130.19238281 1397.13037109 C128.84400688 1398.9224134 128.84400688 1398.9224134 127.52832031 1401.29443359 C126.99561523 1402.21256836 126.46291016 1403.13070313 125.9140625 1404.07666016 C123.18078944 1408.92461526 120.48598404 1413.79243064 117.81759644 1418.6763916 C92.85128004 1464.32951972 65.64368931 1508.57369524 37.19238281 1552.13037109 C40.83292859 1553.41942066 43.26218399 1552.83124694 46.94433594 1551.83642578 C48.12682419 1551.52200027 49.30931244 1551.20757477 50.52763367 1550.88362122 C51.84301274 1550.52333082 53.15834404 1550.16286599 54.47363281 1549.80224609 C55.87325675 1549.42610709 57.27311018 1549.05082114 58.673172 1548.67631531 C62.53270226 1547.64126749 66.38886639 1546.5941362 70.2446022 1545.54505539 C74.38963041 1544.41949081 78.53763478 1543.30499862 82.68530273 1542.18920898 C89.94764899 1540.23390459 97.20803771 1538.27146347 104.46728516 1536.3046875 C115.57626392 1533.29509372 126.6889291 1530.29926949 137.802248 1527.30574799 C163.93720775 1520.26545216 190.06602452 1513.2025126 216.19238281 1506.13037109 C217.13947113 1505.87401634 218.08655945 1505.61766159 219.06234741 1505.35353851 C231.03365739 1502.11308892 243.00431273 1498.87023363 254.97402573 1495.62388992 C257.24033372 1495.00931649 259.50671081 1494.39499844 261.77310181 1493.7807312 C265.24881713 1492.83860161 268.72428158 1491.8955525 272.19953156 1490.95170784 C274.04374195 1490.45102148 275.88816994 1489.95113686 277.73260498 1489.45127869 C278.81511536 1489.15701492 279.89762573 1488.86275116 281.01293945 1488.55957031 C281.94819962 1488.3056955 282.88345978 1488.05182068 283.84706116 1487.79025269 C285.64303121 1487.2849371 287.42242037 1486.72035857 289.19238281 1486.13037109 C289.19238281 1485.47037109 289.19238281 1484.81037109 289.19238281 1484.13037109 C287.69650335 1482.95185386 287.69650335 1482.95185386 285.69628906 1481.83740234 C284.53673706 1481.15121826 284.53673706 1481.15121826 283.35375977 1480.45117188 C282.06731567 1479.70456299 282.06731567 1479.70456299 280.75488281 1478.94287109 C278.90563957 1477.85351084 277.05669467 1476.76364403 275.20800781 1475.67333984 C274.22509766 1475.09632324 273.2421875 1474.51930664 272.22949219 1473.92480469 C269.19934209 1472.13448288 266.18587086 1470.31908355 263.17675781 1468.49365234 C249.60084604 1460.26287728 235.87418635 1452.35798018 221.98144531 1444.67480469 C219.4957505 1443.29835989 217.0146596 1441.91419894 214.53613281 1440.52490234 C192.51168463 1428.19091266 170.18238618 1416.46914085 147.71582031 1404.96630859 C146.75317009 1404.47334793 146.75317009 1404.47334793 145.77107239 1403.97042847 C144.54152412 1403.34205622 143.3111136 1402.71536779 142.07977295 1402.09051514 C140.72252482 1401.40006239 139.36843581 1400.70338669 138.01641846 1400.00274658 C137.3005658 1399.63574646 136.58471313 1399.26874634 135.84716797 1398.890625 C135.19575836 1398.55398834 134.54434875 1398.21735168 133.87319946 1397.87051392 C132.19341034 1396.99603617 132.19341034 1396.99603617 130.19238281 1397.13037109 Z M314.15771484 1613.82324219 C313.43649822 1614.01758819 312.7152816 1614.21193419 311.97220993 1614.41216946 C309.54597409 1615.06810934 307.12319697 1615.73602922 304.70019531 1616.40380859 C302.96595633 1616.87508674 301.23150467 1617.34558288 299.49685669 1617.81535339 C295.74759094 1618.83238238 291.99980033 1619.85462669 288.25305176 1620.88088989 C282.24777484 1622.52566767 276.23942723 1624.15901421 270.23046875 1625.7902832 C263.93427662 1627.5000104 257.63825762 1629.21035713 251.34326172 1630.92448425 C237.09412265 1634.80406006 222.83815355 1638.65738771 208.57519531 1642.48583984 C207.14003917 1642.87108007 207.14003917 1642.87108007 205.67588997 1643.26410294 C200.86025833 1644.55660184 196.04449193 1645.84859785 191.22866821 1647.14038086 C181.49299953 1649.75211945 171.75859441 1652.36856031 162.02441406 1654.98583984 C161.06539625 1655.24369137 160.10637844 1655.50154289 159.11829948 1655.7672081 C135.00343918 1662.25183771 110.89934101 1668.77613952 86.79614258 1675.30395508 C83.29802112 1676.25132719 79.79989229 1677.19867206 76.30175781 1678.14599609 C74.9908936 1678.50100032 74.9908936 1678.50100032 73.65354729 1678.86317635 C58.54848225 1682.95363391 43.44120881 1687.03588755 28.33300781 1691.11474609 C27.23235552 1691.4118964 26.13170322 1691.70904671 24.99769783 1692.01520157 C15.22660791 1694.65307585 5.45539551 1697.29049626 -4.31594849 1699.9274292 C-5.317196 1700.19764704 -6.31844351 1700.46786488 -7.35003185 1700.74627113 C-9.35121478 1701.28629001 -11.35243093 1701.82618579 -13.35368061 1702.36595726 C-18.25094524 1703.68707439 -23.14754215 1705.01056812 -28.04273987 1706.33932495 C-37.30932235 1708.85236337 -46.58078408 1711.34110048 -55.87244511 1713.76003456 C-60.33389763 1714.92325103 -64.79195748 1716.09916466 -69.24974632 1717.27633286 C-71.3809139 1717.83539625 -73.51369623 1718.38834404 -75.6481266 1718.93481827 C-78.60165434 1719.69145122 -81.54897563 1720.46889389 -84.49584961 1721.25097656 C-85.36844358 1721.46861538 -86.24103756 1721.6862542 -87.14007378 1721.91048813 C-92.32899735 1723.31487876 -95.26256806 1724.87588102 -98.80761719 1729.13037109 C-99.4126709 1729.76048096 -100.01772461 1730.39059082 -100.64111328 1731.03979492 C-102.48970507 1733.00616033 -104.33730528 1734.97342676 -106.18261719 1736.94287109 C-107.13394531 1737.95317383 -107.13394531 1737.95317383 -108.10449219 1738.98388672 C-111.84706901 1742.97469568 -115.49029235 1747.03408011 -119.07910156 1751.16333008 C-121.94321881 1754.42267933 -124.90073531 1757.59205742 -127.87011719 1760.75537109 C-128.51207031 1761.44050781 -129.15402344 1762.12564453 -129.81542969 1762.83154297 C-134.80439476 1768.12804698 -139.92205865 1773.28135568 -145.09448242 1778.39794922 C-148.55369011 1781.83289045 -151.81860426 1785.35533056 -154.97558594 1789.07177734 C-157.47055326 1791.87529074 -160.09679091 1794.53469058 -162.74511719 1797.19287109 C-163.22352051 1797.67578613 -163.70192383 1798.15870117 -164.19482422 1798.65625 C-166.88460011 1801.33517637 -169.64742413 1803.87493006 -172.53027344 1806.34521484 C-177.71928377 1810.84186347 -182.48969024 1815.74332037 -187.30761719 1820.63037109 C-192.75001418 1826.15085126 -198.16656714 1831.61279366 -204.08496094 1836.62646484 C-205.91088896 1838.22052899 -207.61122902 1839.89981217 -209.30761719 1841.63037109 C-212.23228834 1844.60094515 -215.29381279 1847.33766228 -218.45214844 1850.05615234 C-220.82382767 1852.144646 -223.13632978 1854.28554619 -225.44580078 1856.44213867 C-229.95864466 1860.65557398 -234.49007672 1864.76227291 -239.30761719 1868.63037109 C-247.22166696 1874.98717759 -254.65011153 1881.93642095 -261.80761719 1889.13037109 C-231.17277998 1895.26554813 -200.48578376 1901.10026977 -169.76855469 1906.80615234 C-168.84899632 1906.97697012 -167.92943795 1907.1477879 -166.98201418 1907.32378197 C-155.38880331 1909.47692339 -143.79477117 1911.62562458 -132.20043218 1913.77268195 C-121.0348039 1915.84039575 -109.86969295 1917.91089792 -98.70458984 1919.98144531 C-94.61740282 1920.73938901 -90.53021365 1921.49732118 -86.44302368 1922.25524902 C-84.93005024 1922.53582086 -84.93005024 1922.53582086 -83.38651168 1922.82206082 C-77.30645963 1923.94953373 -71.22634269 1925.07665602 -65.1461767 1926.20351434 C-41.78904691 1930.53246064 -18.43415266 1934.87303952 4.91637039 1939.23748589 C9.04378281 1940.00890267 13.17133211 1940.77958503 17.29891968 1941.55006409 C18.61692629 1941.79610743 19.9349328 1942.04215127 21.25293922 1942.28819561 C23.79926039 1942.76353002 26.34558472 1943.23884746 28.89191246 1943.71414661 C36.08202615 1945.05663416 43.27142923 1946.40285083 50.46034622 1947.75173092 C54.7848583 1948.56221421 59.11003643 1949.36909449 63.4354248 1950.1748867 C65.39257621 1950.54030236 67.3494358 1950.90728517 69.30596924 1951.27599525 C71.92182152 1951.76882336 74.53863043 1952.25620493 77.15576172 1952.7421875 C78.28315734 1952.95673568 78.28315734 1952.95673568 79.43332863 1953.17561817 C84.78365664 1954.17775273 84.78365664 1954.17775273 90.19238281 1954.13037109 C92.18505207 1952.40037187 93.75750915 1950.81087576 95.44238281 1948.81787109 C95.92199463 1948.27243652 96.40160645 1947.72700195 96.89575195 1947.16503906 C100.64086386 1942.87408843 104.25046044 1938.4691989 107.82128906 1934.03271484 C110.51068694 1930.74075007 113.28387182 1927.53012613 116.06738281 1924.31787109 C120.57876194 1919.09796951 124.89432457 1913.75932659 129.11987305 1908.30639648 C132.18815818 1904.36224441 135.36806176 1900.54031989 138.62988281 1896.75537109 C143.23764383 1891.38993325 147.50710689 1885.81784299 151.71606445 1880.13598633 C154.92784722 1875.80238222 158.20877508 1871.53843329 161.56738281 1867.31787109 C167.71840834 1859.55966011 173.5497659 1851.5718272 179.39404297 1843.58154297 C181.15585333 1841.18016148 182.92790152 1838.78674845 184.70410156 1836.39599609 C192.43657199 1825.97961711 199.95664931 1815.43340983 207.35205078 1804.77539062 C209.26058364 1802.03234937 211.18046339 1799.29753091 213.10253906 1796.56396484 C221.84001622 1784.11345875 230.28251254 1771.50134267 238.52294922 1758.71679688 C240.02447597 1756.39050639 241.53374928 1754.06958174 243.04785156 1751.75146484 C257.3380659 1729.84956144 270.84748982 1707.50174158 284.10974121 1684.96820068 C285.719792 1682.23507184 287.33570298 1679.50540924 288.95019531 1676.77490234 C301.26191231 1655.88192551 312.98764442 1634.63724396 324.19238281 1613.13037109 C320.38858733 1611.86243926 317.87961115 1612.78307293 314.15771484 1613.82324219 Z M-550.41503906 1808.07666016 C-551.08687746 1808.08894378 -551.75871586 1808.1012274 -552.450913 1808.11388325 C-569.71062186 1808.4297647 -586.97010794 1808.75714011 -604.22952181 1809.08870661 C-615.83424942 1809.31163967 -627.43903165 1809.53147487 -639.04386902 1809.74861908 C-640.21970433 1809.77062305 -640.21970433 1809.77062305 -641.41929389 1809.79307155 C-645.40826521 1809.86770569 -649.39723739 1809.94229341 -653.38620991 1810.01686367 C-681.52238169 1810.54292945 -709.65843994 1811.07485002 -737.79443359 1811.61035156 C-764.54535524 1812.11947714 -791.29632272 1812.62606604 -818.04736328 1813.12890625 C-818.86221668 1813.14422429 -819.67707009 1813.15954233 -820.51661602 1813.17532455 C-828.72582199 1813.3296433 -836.93502897 1813.48390852 -845.14423669 1813.63813399 C-862.2670621 1813.95981937 -879.38988114 1814.28184322 -896.51269531 1814.60412598 C-897.31480827 1814.61922272 -898.11692122 1814.63431946 -898.94334063 1814.64987368 C-923.81415116 1815.11799673 -948.68492293 1815.58814146 -973.55566406 1816.05993652 C-974.33921368 1816.07479983 -975.1227633 1816.08966314 -975.93005684 1816.10497686 C-989.20665083 1816.35682787 -1002.48324272 1816.60878925 -1015.75983381 1816.86079299 C-1055.93087488 1817.62326644 -1096.10199929 1818.38097405 -1136.27330306 1819.12948503 C-1145.2190088 1819.29617305 -1154.16470893 1819.4631593 -1163.11040497 1819.63036728 C-1164.33705324 1819.65329265 -1165.56370151 1819.67621801 -1166.82752094 1819.69983809 C-1171.68470938 1819.79061899 -1176.54189772 1819.8814049 -1181.39908546 1819.97222325 C-1195.0748039 1820.22791019 -1208.75054093 1820.48253688 -1222.4263165 1820.7351498 C-1230.71879054 1820.88841839 -1239.01123844 1821.04305172 -1247.30366731 1821.19874507 C-1251.9760993 1821.28642274 -1256.6485399 1821.37351601 -1261.32101631 1821.4587965 C-1262.18620816 1821.47467887 -1263.0514 1821.49056123 -1263.94280978 1821.50692488 C-1265.64701517 1821.53806113 -1267.35122828 1821.56877757 -1269.05544914 1821.59905495 C-1273.09393251 1821.67222995 -1277.13158138 1821.75613447 -1281.16925412 1821.86563367 C-1288.00023003 1822.04485416 -1294.79630121 1822.16885608 -1301.62744233 1821.93654932 C-1322.60758879 1821.22743788 -1322.60758879 1821.22743788 -1340.30178726 1831.60489643 C-1342.52961091 1833.84916422 -1344.67220987 1836.15850923 -1346.82055664 1838.47875977 C-1348.45736704 1840.12134239 -1350.10129009 1841.75686244 -1351.75158691 1843.38589478 C-1356.15704896 1847.77383568 -1360.45761972 1852.25245308 -1364.74404931 1856.75633407 C-1369.26582278 1861.47263187 -1373.87945942 1866.09741044 -1378.48320007 1870.73347473 C-1386.18730453 1878.51086131 -1393.82728554 1886.34744337 -1401.42749023 1894.22631836 C-1409.23398459 1902.31875184 -1417.07662163 1910.37335247 -1424.96850586 1918.38256836 C-1425.45640263 1918.87774148 -1425.94429941 1919.3729146 -1426.44698093 1919.88309296 C-1428.40884706 1921.87391719 -1430.37097978 1923.86447816 -1432.33346428 1925.85469283 C-1447.34480922 1941.07869424 -1462.31925648 1956.33934104 -1477.18982697 1971.70097733 C-1478.74274649 1973.30445124 -1480.2971761 1974.90646426 -1481.8532238 1976.50690269 C-1483.97646139 1978.69193708 -1486.09348363 1980.88280544 -1488.20869446 1983.0756073 C-1488.82432151 1983.7072365 -1489.43994856 1984.33886569 -1490.07423097 1984.98963517 C-1493.44300476 1988.49873875 -1496.24173726 1991.994304 -1498.80761719 1996.13037109 C-1486.39464048 1999.58288236 -1473.87768643 2002.49900604 -1461.30761719 2005.31787109 C-1460.24404999 2005.55647858 -1459.18048279 2005.79508606 -1458.08468628 2006.04092407 C-1375.29595554 2024.54673073 -1290.81230924 2036.99478157 -1206.03128052 2041.02322388 C-1204.46641004 2041.09862716 -1202.90170245 2041.17745006 -1201.33712769 2041.25875854 C-1180.85330006 2042.3096014 -1160.37485146 2042.33170733 -1139.87011719 2042.31787109 C-1138.98341717 2042.31760422 -1138.09671715 2042.31733734 -1137.18314743 2042.31706238 C-1111.20712023 2042.30725517 -1085.28130632 2042.21609365 -1059.3616333 2040.31719971 C-1056.58730058 2040.11425473 -1053.81247926 2039.91892283 -1051.03759766 2039.72363281 C-954.83417371 2032.86876032 -859.64306239 2015.99014312 -767.80761719 1986.13037109 C-766.91957397 1985.84224548 -766.03153076 1985.55411987 -765.11657715 1985.25726318 C-717.04071469 1969.62077261 -670.48002046 1950.78777865 -624.80761719 1929.13037109 C-624.17430481 1928.8306842 -623.54099243 1928.53099731 -622.88848877 1928.222229 C-606.49797871 1920.46393534 -590.32099915 1912.46253816 -574.48535156 1903.61181641 C-571.69489828 1902.06800983 -568.88758412 1900.5598439 -566.07324219 1899.06005859 C-536.43983693 1883.25524968 -507.84477336 1865.60340316 -479.80761719 1847.13037109 C-478.82792969 1846.48632324 -477.84824219 1845.84227539 -476.83886719 1845.17871094 C-465.2018531 1837.518044 -453.69616915 1829.76289953 -442.54296875 1821.41259766 C-438.83647987 1818.67392579 -435.05904833 1816.0313178 -431.28369141 1813.38867188 C-428.56245434 1811.46566435 -426.12046834 1809.5234466 -423.80761719 1807.13037109 C-466.01951779 1806.7555742 -508.2102492 1807.30428835 -550.41503906 1808.07666016 Z M-411.84277344 1997.36865234 C-412.64231445 1997.85317871 -413.44185547 1998.33770508 -414.265625 1998.83691406 C-415.12510742 1999.36687988 -415.98458984 1999.8968457 -416.87011719 2000.44287109 C-418.21541504 2001.26102295 -418.21541504 2001.26102295 -419.58789062 2002.09570312 C-422.33224239 2003.76678796 -425.07083136 2005.44692899 -427.80761719 2007.13037109 C-461.13052704 2027.61351868 -495.1684148 2046.51394012 -530.03143311 2064.22601318 C-532.56593791 2065.51647597 -535.09459349 2066.81827685 -537.62402344 2068.11865234 C-610.09844635 2105.14304422 -687.77615517 2133.78678016 -766.06713867 2155.70507812 C-766.83587311 2155.92203842 -767.60460754 2156.13899872 -768.39663696 2156.36253357 C-769.82814285 2156.76595257 -771.26091854 2157.16490379 -772.69515991 2157.55848694 C-775.83109483 2158.44345405 -778.06482393 2159.30184226 -780.80761719 2161.13037109 C-758.74027484 2165.64590586 -736.60341291 2169.78516086 -714.46411133 2173.93004608 C-710.99033034 2174.58046975 -707.51664317 2175.2313927 -704.04296875 2175.88238525 C-642.14006839 2187.48079749 -580.21423753 2198.95698187 -518.28491211 2210.41333008 C-516.0667716 2210.82369098 -513.84863163 2211.23405481 -511.63049221 2211.64442158 C-510.53175803 2211.8476906 -509.43302385 2212.05095962 -508.30099469 2212.26038831 C-506.08073849 2212.67114231 -503.8604826 2213.08189798 -501.64022702 2213.49265534 C-496.08800079 2214.51983437 -490.535761 2215.54693995 -484.98349571 2216.57390785 C-455.8505863 2221.96282275 -426.72346419 2227.38178238 -397.60172546 2232.83073056 C-384.78050783 2235.22916891 -371.95739681 2237.6174524 -359.13404274 2240.0044384 C-348.96414265 2241.89802754 -338.79604798 2243.80081472 -328.63008744 2245.71544254 C-321.77970122 2247.00482205 -314.92737143 2248.28348414 -308.07336754 2249.55349171 C-304.15281349 2250.28032076 -300.23334987 2251.01208209 -296.31622505 2251.7571907 C-292.75238429 2252.43504172 -289.18626485 2253.09910896 -285.61779404 2253.75213361 C-283.72226837 2254.10276009 -281.8295156 2254.46827606 -279.93690491 2254.83431053 C-278.24930054 2255.1389318 -278.24930054 2255.1389318 -276.52760315 2255.44970703 C-275.56050195 2255.63080017 -274.59340075 2255.81189331 -273.59699345 2255.99847412 C-268.60175509 2256.23467632 -264.54233871 2254.17704218 -260.35058594 2251.64599609 C-259.50246338 2251.13439941 -258.65434082 2250.62280273 -257.78051758 2250.09570312 C-256.86133545 2249.52964355 -255.94215332 2248.96358398 -254.99511719 2248.38037109 C-254.00954834 2247.77692871 -253.02397949 2247.17348633 -252.00854492 2246.55175781 C-239.38981325 2238.74259701 -227.0972737 2230.43194141 -214.78746033 2222.14810181 C-209.47850799 2218.57612823 -204.15018119 2215.03457228 -198.81591797 2211.50048828 C-164.4327956 2188.69746312 -131.55950096 2163.7014522 -99.61621094 2137.60693359 C-98.01526239 2136.29989569 -96.41163743 2134.99613754 -94.80761719 2133.69287109 C-88.31047066 2128.40449602 -81.89876878 2123.02055777 -75.52099609 2117.58935547 C-74.36250372 2116.60287066 -73.20330449 2115.61721545 -72.04345703 2114.63232422 C-65.00362934 2108.65260723 -58.05716372 2102.60020634 -51.24902344 2096.35693359 C-49.14606886 2094.43903902 -47.02092563 2092.55661064 -44.87011719 2090.69287109 C-40.95549706 2087.29164377 -37.14156693 2083.78362509 -33.32641602 2080.27197266 C-28.86690183 2076.17169513 -24.35251603 2072.13585012 -19.80761719 2068.13037109 C-23.11665174 2065.92434806 -25.28096187 2065.49024593 -29.16937256 2064.76731873 C-29.8197205 2064.64443975 -30.47006845 2064.52156078 -31.1401239 2064.3949582 C-33.32986121 2063.98299196 -35.52131682 2063.58102802 -37.71289062 2063.17895508 C-39.29024011 2062.88433677 -40.8674757 2062.58910809 -42.44460583 2062.29331779 C-46.77168638 2061.48361301 -51.10033901 2060.68260987 -55.42930102 2059.88303399 C-60.05149728 2059.02776513 -64.67221097 2058.16455763 -69.29310608 2057.30229187 C-78.26397901 2055.62961237 -87.23620557 2053.96430673 -96.20890635 2052.30146354 C-106.59891619 2050.37563331 -116.98747662 2048.44204001 -127.37597954 2046.50810051 C-150.28568465 2042.24355402 -173.19771744 2037.99159751 -196.11041921 2033.74318552 C-205.11962146 2032.07267566 -214.12857111 2030.40080622 -223.13747764 2028.72870243 C-254.5979557 2022.88958424 -286.05926771 2017.0549195 -317.52548218 2011.2467804 C-319.92763428 2010.80336376 -322.32978475 2010.35993822 -324.73193359 2009.91650391 C-325.92629972 2009.69603236 -327.12066586 2009.47556082 -328.3512249 2009.24840832 C-336.65334136 2007.71508328 -344.95425913 2006.17539703 -353.25470066 2004.63303566 C-358.57785842 2003.64397149 -363.90135531 2002.65673832 -369.22493643 2001.66995561 C-372.90070728 2000.98848782 -376.57628826 2000.30602885 -380.25144386 1999.62125015 C-384.30439406 1998.8660788 -388.35809494 1998.11501442 -392.41186523 1997.36425781 C-394.2344048 1997.02356577 -394.2344048 1997.02356577 -396.09376335 1996.67599106 C-397.2030929 1996.47119251 -398.31242245 1996.26639397 -399.45536804 1996.0553894 C-400.90514557 1995.78595426 -400.90514557 1995.78595426 -402.38421154 1995.51107597 C-406.46541167 1994.86993989 -408.37974922 1995.25093595 -411.84277344 1997.36865234 Z M-1476.80761719 2169.13037109 C-1474.16308123 2172.62406998 -1471.48400443 2175.40628683 -1468.05761719 2178.13037109 C-1467.08566406 2178.90896484 -1466.11371094 2179.68755859 -1465.11230469 2180.48974609 C-1464.58217773 2180.91191406 -1464.05205078 2181.33408203 -1463.50585938 2181.76904297 C-1461.70216009 2183.21490657 -1459.91387853 2184.67827086 -1458.12792969 2186.14599609 C-1450.62690539 2192.30263938 -1443.03626126 2198.31658684 -1435.30517578 2204.18188477 C-1430.86197876 2207.55295199 -1426.45654955 2210.96669131 -1422.07250977 2214.41430664 C-1413.5264993 2221.12527854 -1404.79853557 2227.49467132 -1395.87255859 2233.68896484 C-1393.87584117 2235.0827482 -1391.89236586 2236.49321207 -1389.91308594 2237.91162109 C-1370.07920706 2252.10537128 -1349.6975217 2265.54427708 -1328.80761719 2278.13037109 C-1327.79828125 2278.74058105 -1326.78894531 2279.35079102 -1325.74902344 2279.97949219 C-1256.92018049 2321.49579882 -1184.40688604 2354.7042883 -1107.80761719 2379.13037109 C-1107.16322693 2379.33664124 -1106.51883667 2379.54291138 -1105.85491943 2379.75543213 C-1044.26183215 2399.44158474 -980.16404853 2411.37613773 -915.80761719 2417.13037109 C-914.98650452 2417.20555969 -914.16539185 2417.28074829 -913.31939697 2417.35821533 C-886.87277489 2419.76384851 -860.47219317 2420.41738382 -833.9322052 2420.44044495 C-831.60872539 2420.44281888 -829.28526593 2420.44812388 -826.96179199 2420.45373535 C-798.1351992 2420.50474109 -769.37987422 2419.24903628 -740.68261719 2416.44287109 C-739.4171254 2416.32073746 -739.4171254 2416.32073746 -738.12606812 2416.19613647 C-659.31797486 2408.49276388 -582.52756166 2390.73016779 -507.30761719 2366.31787109 C-506.37264404 2366.01530396 -505.4376709 2365.71273682 -504.47436523 2365.40100098 C-491.08818728 2361.05342949 -477.91543042 2356.25532234 -464.80761719 2351.13037109 C-464.80761719 2350.80037109 -464.80761719 2350.47037109 -464.80761719 2350.13037109 C-545.92719698 2333.04206262 -627.04702605 2315.95502247 -708.18261719 2298.94287109 C-709.62624742 2298.64017495 -711.06987764 2298.33747872 -712.51350784 2298.03478241 C-714.6888568 2297.5786622 -716.86420584 2297.12254242 -719.03955513 2296.6664238 C-727.06382379 2294.98392297 -735.0880737 2293.3013328 -743.11230469 2291.61865234 C-743.83513445 2291.46707767 -744.55796421 2291.31550299 -745.3026979 2291.15933514 C-769.39162579 2286.10792563 -793.4790172 2281.04922942 -817.56542969 2275.98583984 C-818.38105409 2275.81438186 -819.19667849 2275.64292388 -820.03701878 2275.46627021 C-834.10840288 2272.50819836 -848.1796797 2269.54961628 -862.25094604 2266.59098434 C-873.72031538 2264.1794349 -885.18971484 2261.76802875 -896.65917969 2259.35693359 C-897.4677539 2259.18695555 -898.27632811 2259.01697751 -899.10940456 2258.84184861 C-923.6027266 2253.69296267 -948.09728487 2248.54999155 -972.59300327 2243.4125185 C-975.01584947 2242.90437596 -977.4386921 2242.39621638 -979.86153412 2241.88805389 C-994.38712354 2238.84151426 -1008.91277436 2235.79526787 -1023.43883443 2232.75097299 C-1028.96649821 2231.59249543 -1034.49406538 2230.43355754 -1040.0215919 2229.27442527 C-1043.3847829 2228.56921463 -1046.74804345 2227.86433891 -1050.11145782 2227.1601944 C-1065.35779133 2223.96830693 -1080.59892966 2220.75364614 -1095.83193278 2217.49867892 C-1100.74565096 2216.44935386 -1105.66004375 2215.4031909 -1110.57440245 2214.35687029 C-1115.28741564 2213.3529037 -1119.99915448 2212.34321194 -1124.70999908 2211.32912159 C-1127.62832257 2210.70228081 -1130.54776632 2210.08078471 -1133.46752119 2209.46064901 C-1135.45403874 2209.03701295 -1137.43916423 2208.60686534 -1139.42422867 2208.17647171 C-1150.09629473 2205.91826009 -1160.52067253 2205.04329713 -1171.40136719 2204.73583984 C-1173.47332897 2204.66978471 -1175.5452682 2204.6030191 -1177.6171875 2204.53564453 C-1179.24702576 2204.48337708 -1179.24702576 2204.48337708 -1180.90979004 2204.43005371 C-1274.66431835 2201.33465542 -1368.09057994 2190.86712054 -1459.98681641 2171.92382812 C-1460.89637589 2171.73684357 -1461.80593536 2171.54985901 -1462.74305725 2171.35720825 C-1464.44000268 2171.00726319 -1466.13636346 2170.65446633 -1467.83201599 2170.29830933 C-1470.87842782 2169.66813041 -1473.68736244 2169.13037109 -1476.80761719 2169.13037109 Z " fill="#231F20" transform="translate(2171.8076171875,-0.13037109375)"/>
</svg>
